<?xml version="1.0" encoding="utf-8" standalone="no"?>
<!DOCTYPE svg PUBLIC "-//W3C//DTD SVG 1.1//EN"
  "http://www.w3.org/Graphics/SVG/1.1/DTD/svg11.dtd">
<svg xmlns:xlink="http://www.w3.org/1999/xlink" width="720pt" height="720pt" viewBox="0 0 720 720" xmlns="http://www.w3.org/2000/svg" version="1.1">
 <metadata>
  <rdf:RDF xmlns:dc="http://purl.org/dc/elements/1.1/" xmlns:cc="http://creativecommons.org/ns#" xmlns:rdf="http://www.w3.org/1999/02/22-rdf-syntax-ns#">
   <cc:Work>
    <dc:type rdf:resource="http://purl.org/dc/dcmitype/StillImage"/>
    <dc:date>1980-01-01T00:00:00+00:00</dc:date>
    <dc:format>image/svg+xml</dc:format>
    <dc:creator>
     <cc:Agent>
      <dc:title>Matplotlib v3.10.1, https://matplotlib.org/</dc:title>
     </cc:Agent>
    </dc:creator>
   </cc:Work>
  </rdf:RDF>
 </metadata>
 <defs>
  <style type="text/css">*{stroke-linejoin: round; stroke-linecap: butt}</style>
 </defs>
 <g id="figure_1">
  <g id="patch_1">
   <path d="M 0 720 
L 720 720 
L 720 0 
L 0 0 
z
" style="fill: #ffffff"/>
  </g>
  <g id="axes_1">
   <g id="patch_2">
    <path d="M 90 640.8 
L 648 640.8 
L 648 86.4 
L 90 86.4 
z
" style="fill: #ffffff"/>
   </g>
   <g id="matplotlib.axis_1">
    <g id="xtick_1">
     <g id="line2d_1">
      <path d="M 90 640.8 
L 90 86.4 
" clip-path="url(#pd856aeedb4)" style="fill: none; stroke: #c0c0c0; stroke-width: 1.5; stroke-linecap: round"/>
     </g>
     <g id="line2d_2">
      <defs>
       <path id="m6557ef69d2" d="M 0 0 
L 0 9 
" style="stroke: #000000; stroke-width: 1.875"/>
      </defs>
      <g>
       <use xlink:href="#m6557ef69d2" x="90" y="640.8" style="stroke: #000000; stroke-width: 1.875"/>
      </g>
     </g>
     <g id="text_1">
      <!-- 0.0 -->
      <g transform="translate(77.49 666.184062) scale(0.18 -0.18)">
       <defs>
        <path id="ArialMT-30" d="M 266 2259 
Q 266 3072 433 3567 
Q 600 4063 929 4331 
Q 1259 4600 1759 4600 
Q 2128 4600 2406 4451 
Q 2684 4303 2865 4023 
Q 3047 3744 3150 3342 
Q 3253 2941 3253 2259 
Q 3253 1453 3087 958 
Q 2922 463 2592 192 
Q 2263 -78 1759 -78 
Q 1097 -78 719 397 
Q 266 969 266 2259 
z
M 844 2259 
Q 844 1131 1108 757 
Q 1372 384 1759 384 
Q 2147 384 2411 759 
Q 2675 1134 2675 2259 
Q 2675 3391 2411 3762 
Q 2147 4134 1753 4134 
Q 1366 4134 1134 3806 
Q 844 3388 844 2259 
z
" transform="scale(0.015625)"/>
        <path id="ArialMT-2e" d="M 581 0 
L 581 641 
L 1222 641 
L 1222 0 
L 581 0 
z
" transform="scale(0.015625)"/>
       </defs>
       <use xlink:href="#ArialMT-30"/>
       <use xlink:href="#ArialMT-2e" transform="translate(55.615234 0)"/>
       <use xlink:href="#ArialMT-30" transform="translate(83.398438 0)"/>
      </g>
     </g>
    </g>
    <g id="xtick_2">
     <g id="line2d_3">
      <path d="M 201.6 640.8 
L 201.6 86.4 
" clip-path="url(#pd856aeedb4)" style="fill: none; stroke: #c0c0c0; stroke-width: 1.5; stroke-linecap: round"/>
     </g>
     <g id="line2d_4">
      <g>
       <use xlink:href="#m6557ef69d2" x="201.6" y="640.8" style="stroke: #000000; stroke-width: 1.875"/>
      </g>
     </g>
     <g id="text_2">
      <!-- 0.2 -->
      <g transform="translate(189.09 666.184062) scale(0.18 -0.18)">
       <defs>
        <path id="ArialMT-32" d="M 3222 541 
L 3222 0 
L 194 0 
Q 188 203 259 391 
Q 375 700 629 1000 
Q 884 1300 1366 1694 
Q 2113 2306 2375 2664 
Q 2638 3022 2638 3341 
Q 2638 3675 2398 3904 
Q 2159 4134 1775 4134 
Q 1369 4134 1125 3890 
Q 881 3647 878 3216 
L 300 3275 
Q 359 3922 746 4261 
Q 1134 4600 1788 4600 
Q 2447 4600 2831 4234 
Q 3216 3869 3216 3328 
Q 3216 3053 3103 2787 
Q 2991 2522 2730 2228 
Q 2469 1934 1863 1422 
Q 1356 997 1212 845 
Q 1069 694 975 541 
L 3222 541 
z
" transform="scale(0.015625)"/>
       </defs>
       <use xlink:href="#ArialMT-30"/>
       <use xlink:href="#ArialMT-2e" transform="translate(55.615234 0)"/>
       <use xlink:href="#ArialMT-32" transform="translate(83.398438 0)"/>
      </g>
     </g>
    </g>
    <g id="xtick_3">
     <g id="line2d_5">
      <path d="M 313.2 640.8 
L 313.2 86.4 
" clip-path="url(#pd856aeedb4)" style="fill: none; stroke: #c0c0c0; stroke-width: 1.5; stroke-linecap: round"/>
     </g>
     <g id="line2d_6">
      <g>
       <use xlink:href="#m6557ef69d2" x="313.2" y="640.8" style="stroke: #000000; stroke-width: 1.875"/>
      </g>
     </g>
     <g id="text_3">
      <!-- 0.4 -->
      <g transform="translate(300.69 666.184062) scale(0.18 -0.18)">
       <defs>
        <path id="ArialMT-34" d="M 2069 0 
L 2069 1097 
L 81 1097 
L 81 1613 
L 2172 4581 
L 2631 4581 
L 2631 1613 
L 3250 1613 
L 3250 1097 
L 2631 1097 
L 2631 0 
L 2069 0 
z
M 2069 1613 
L 2069 3678 
L 634 1613 
L 2069 1613 
z
" transform="scale(0.015625)"/>
       </defs>
       <use xlink:href="#ArialMT-30"/>
       <use xlink:href="#ArialMT-2e" transform="translate(55.615234 0)"/>
       <use xlink:href="#ArialMT-34" transform="translate(83.398438 0)"/>
      </g>
     </g>
    </g>
    <g id="xtick_4">
     <g id="line2d_7">
      <path d="M 424.8 640.8 
L 424.8 86.4 
" clip-path="url(#pd856aeedb4)" style="fill: none; stroke: #c0c0c0; stroke-width: 1.5; stroke-linecap: round"/>
     </g>
     <g id="line2d_8">
      <g>
       <use xlink:href="#m6557ef69d2" x="424.8" y="640.8" style="stroke: #000000; stroke-width: 1.875"/>
      </g>
     </g>
     <g id="text_4">
      <!-- 0.6 -->
      <g transform="translate(412.29 666.184062) scale(0.18 -0.18)">
       <defs>
        <path id="ArialMT-36" d="M 3184 3459 
L 2625 3416 
Q 2550 3747 2413 3897 
Q 2184 4138 1850 4138 
Q 1581 4138 1378 3988 
Q 1113 3794 959 3422 
Q 806 3050 800 2363 
Q 1003 2672 1297 2822 
Q 1591 2972 1913 2972 
Q 2475 2972 2870 2558 
Q 3266 2144 3266 1488 
Q 3266 1056 3080 686 
Q 2894 316 2569 119 
Q 2244 -78 1831 -78 
Q 1128 -78 684 439 
Q 241 956 241 2144 
Q 241 3472 731 4075 
Q 1159 4600 1884 4600 
Q 2425 4600 2770 4297 
Q 3116 3994 3184 3459 
z
M 888 1484 
Q 888 1194 1011 928 
Q 1134 663 1356 523 
Q 1578 384 1822 384 
Q 2178 384 2434 671 
Q 2691 959 2691 1453 
Q 2691 1928 2437 2201 
Q 2184 2475 1800 2475 
Q 1419 2475 1153 2201 
Q 888 1928 888 1484 
z
" transform="scale(0.015625)"/>
       </defs>
       <use xlink:href="#ArialMT-30"/>
       <use xlink:href="#ArialMT-2e" transform="translate(55.615234 0)"/>
       <use xlink:href="#ArialMT-36" transform="translate(83.398438 0)"/>
      </g>
     </g>
    </g>
    <g id="xtick_5">
     <g id="line2d_9">
      <path d="M 536.4 640.8 
L 536.4 86.4 
" clip-path="url(#pd856aeedb4)" style="fill: none; stroke: #c0c0c0; stroke-width: 1.5; stroke-linecap: round"/>
     </g>
     <g id="line2d_10">
      <g>
       <use xlink:href="#m6557ef69d2" x="536.4" y="640.8" style="stroke: #000000; stroke-width: 1.875"/>
      </g>
     </g>
     <g id="text_5">
      <!-- 0.8 -->
      <g transform="translate(523.89 666.184062) scale(0.18 -0.18)">
       <defs>
        <path id="ArialMT-38" d="M 1131 2484 
Q 781 2613 612 2850 
Q 444 3088 444 3419 
Q 444 3919 803 4259 
Q 1163 4600 1759 4600 
Q 2359 4600 2725 4251 
Q 3091 3903 3091 3403 
Q 3091 3084 2923 2848 
Q 2756 2613 2416 2484 
Q 2838 2347 3058 2040 
Q 3278 1734 3278 1309 
Q 3278 722 2862 322 
Q 2447 -78 1769 -78 
Q 1091 -78 675 323 
Q 259 725 259 1325 
Q 259 1772 486 2073 
Q 713 2375 1131 2484 
z
M 1019 3438 
Q 1019 3113 1228 2906 
Q 1438 2700 1772 2700 
Q 2097 2700 2305 2904 
Q 2513 3109 2513 3406 
Q 2513 3716 2298 3927 
Q 2084 4138 1766 4138 
Q 1444 4138 1231 3931 
Q 1019 3725 1019 3438 
z
M 838 1322 
Q 838 1081 952 856 
Q 1066 631 1291 507 
Q 1516 384 1775 384 
Q 2178 384 2440 643 
Q 2703 903 2703 1303 
Q 2703 1709 2433 1975 
Q 2163 2241 1756 2241 
Q 1359 2241 1098 1978 
Q 838 1716 838 1322 
z
" transform="scale(0.015625)"/>
       </defs>
       <use xlink:href="#ArialMT-30"/>
       <use xlink:href="#ArialMT-2e" transform="translate(55.615234 0)"/>
       <use xlink:href="#ArialMT-38" transform="translate(83.398438 0)"/>
      </g>
     </g>
    </g>
    <g id="xtick_6">
     <g id="line2d_11">
      <path d="M 648 640.8 
L 648 86.4 
" clip-path="url(#pd856aeedb4)" style="fill: none; stroke: #c0c0c0; stroke-width: 1.5; stroke-linecap: round"/>
     </g>
     <g id="line2d_12">
      <g>
       <use xlink:href="#m6557ef69d2" x="648" y="640.8" style="stroke: #000000; stroke-width: 1.875"/>
      </g>
     </g>
     <g id="text_6">
      <!-- 1.0 -->
      <g transform="translate(635.49 666.184062) scale(0.18 -0.18)">
       <defs>
        <path id="ArialMT-31" d="M 2384 0 
L 1822 0 
L 1822 3584 
Q 1619 3391 1289 3197 
Q 959 3003 697 2906 
L 697 3450 
Q 1169 3672 1522 3987 
Q 1875 4303 2022 4600 
L 2384 4600 
L 2384 0 
z
" transform="scale(0.015625)"/>
       </defs>
       <use xlink:href="#ArialMT-31"/>
       <use xlink:href="#ArialMT-2e" transform="translate(55.615234 0)"/>
       <use xlink:href="#ArialMT-30" transform="translate(83.398438 0)"/>
      </g>
     </g>
    </g>
    <g id="xtick_7">
     <g id="line2d_13">
      <defs>
       <path id="mfe4c7be6bf" d="M 0 0 
L 0 6 
" style="stroke: #000000; stroke-width: 1.5"/>
      </defs>
      <g>
       <use xlink:href="#mfe4c7be6bf" x="117.9" y="640.8" style="stroke: #000000; stroke-width: 1.5"/>
      </g>
     </g>
    </g>
    <g id="xtick_8">
     <g id="line2d_14">
      <g>
       <use xlink:href="#mfe4c7be6bf" x="145.8" y="640.8" style="stroke: #000000; stroke-width: 1.5"/>
      </g>
     </g>
    </g>
    <g id="xtick_9">
     <g id="line2d_15">
      <g>
       <use xlink:href="#mfe4c7be6bf" x="173.7" y="640.8" style="stroke: #000000; stroke-width: 1.5"/>
      </g>
     </g>
    </g>
    <g id="xtick_10">
     <g id="line2d_16">
      <g>
       <use xlink:href="#mfe4c7be6bf" x="229.5" y="640.8" style="stroke: #000000; stroke-width: 1.5"/>
      </g>
     </g>
    </g>
    <g id="xtick_11">
     <g id="line2d_17">
      <g>
       <use xlink:href="#mfe4c7be6bf" x="257.4" y="640.8" style="stroke: #000000; stroke-width: 1.5"/>
      </g>
     </g>
    </g>
    <g id="xtick_12">
     <g id="line2d_18">
      <g>
       <use xlink:href="#mfe4c7be6bf" x="285.3" y="640.8" style="stroke: #000000; stroke-width: 1.5"/>
      </g>
     </g>
    </g>
    <g id="xtick_13">
     <g id="line2d_19">
      <g>
       <use xlink:href="#mfe4c7be6bf" x="341.1" y="640.8" style="stroke: #000000; stroke-width: 1.5"/>
      </g>
     </g>
    </g>
    <g id="xtick_14">
     <g id="line2d_20">
      <g>
       <use xlink:href="#mfe4c7be6bf" x="369" y="640.8" style="stroke: #000000; stroke-width: 1.5"/>
      </g>
     </g>
    </g>
    <g id="xtick_15">
     <g id="line2d_21">
      <g>
       <use xlink:href="#mfe4c7be6bf" x="396.9" y="640.8" style="stroke: #000000; stroke-width: 1.5"/>
      </g>
     </g>
    </g>
    <g id="xtick_16">
     <g id="line2d_22">
      <g>
       <use xlink:href="#mfe4c7be6bf" x="452.7" y="640.8" style="stroke: #000000; stroke-width: 1.5"/>
      </g>
     </g>
    </g>
    <g id="xtick_17">
     <g id="line2d_23">
      <g>
       <use xlink:href="#mfe4c7be6bf" x="480.6" y="640.8" style="stroke: #000000; stroke-width: 1.5"/>
      </g>
     </g>
    </g>
    <g id="xtick_18">
     <g id="line2d_24">
      <g>
       <use xlink:href="#mfe4c7be6bf" x="508.5" y="640.8" style="stroke: #000000; stroke-width: 1.5"/>
      </g>
     </g>
    </g>
    <g id="xtick_19">
     <g id="line2d_25">
      <g>
       <use xlink:href="#mfe4c7be6bf" x="564.3" y="640.8" style="stroke: #000000; stroke-width: 1.5"/>
      </g>
     </g>
    </g>
    <g id="xtick_20">
     <g id="line2d_26">
      <g>
       <use xlink:href="#mfe4c7be6bf" x="592.2" y="640.8" style="stroke: #000000; stroke-width: 1.5"/>
      </g>
     </g>
    </g>
    <g id="xtick_21">
     <g id="line2d_27">
      <g>
       <use xlink:href="#mfe4c7be6bf" x="620.1" y="640.8" style="stroke: #000000; stroke-width: 1.5"/>
      </g>
     </g>
    </g>
    <g id="text_7">
     <!-- $X$ Value -->
     <g style="fill: #262626" transform="translate(333.7 704.077188) scale(0.2 -0.2)">
      <defs>
       <path id="DejaVuSans-Oblique-58" d="M 878 4666 
L 1516 4666 
L 2316 2981 
L 3763 4666 
L 4500 4666 
L 2578 2438 
L 3738 0 
L 3103 0 
L 2163 1966 
L 459 0 
L -275 0 
L 1906 2509 
L 878 4666 
z
" transform="scale(0.015625)"/>
       <path id="ArialMT-20" transform="scale(0.015625)"/>
       <path id="ArialMT-56" d="M 1803 0 
L 28 4581 
L 684 4581 
L 1875 1253 
Q 2019 853 2116 503 
Q 2222 878 2363 1253 
L 3600 4581 
L 4219 4581 
L 2425 0 
L 1803 0 
z
" transform="scale(0.015625)"/>
       <path id="ArialMT-61" d="M 2588 409 
Q 2275 144 1986 34 
Q 1697 -75 1366 -75 
Q 819 -75 525 192 
Q 231 459 231 875 
Q 231 1119 342 1320 
Q 453 1522 633 1644 
Q 813 1766 1038 1828 
Q 1203 1872 1538 1913 
Q 2219 1994 2541 2106 
Q 2544 2222 2544 2253 
Q 2544 2597 2384 2738 
Q 2169 2928 1744 2928 
Q 1347 2928 1158 2789 
Q 969 2650 878 2297 
L 328 2372 
Q 403 2725 575 2942 
Q 747 3159 1072 3276 
Q 1397 3394 1825 3394 
Q 2250 3394 2515 3294 
Q 2781 3194 2906 3042 
Q 3031 2891 3081 2659 
Q 3109 2516 3109 2141 
L 3109 1391 
Q 3109 606 3145 398 
Q 3181 191 3288 0 
L 2700 0 
Q 2613 175 2588 409 
z
M 2541 1666 
Q 2234 1541 1622 1453 
Q 1275 1403 1131 1340 
Q 988 1278 909 1158 
Q 831 1038 831 891 
Q 831 666 1001 516 
Q 1172 366 1500 366 
Q 1825 366 2078 508 
Q 2331 650 2450 897 
Q 2541 1088 2541 1459 
L 2541 1666 
z
" transform="scale(0.015625)"/>
       <path id="ArialMT-6c" d="M 409 0 
L 409 4581 
L 972 4581 
L 972 0 
L 409 0 
z
" transform="scale(0.015625)"/>
       <path id="ArialMT-75" d="M 2597 0 
L 2597 488 
Q 2209 -75 1544 -75 
Q 1250 -75 995 37 
Q 741 150 617 320 
Q 494 491 444 738 
Q 409 903 409 1263 
L 409 3319 
L 972 3319 
L 972 1478 
Q 972 1038 1006 884 
Q 1059 663 1231 536 
Q 1403 409 1656 409 
Q 1909 409 2131 539 
Q 2353 669 2445 892 
Q 2538 1116 2538 1541 
L 2538 3319 
L 3100 3319 
L 3100 0 
L 2597 0 
z
" transform="scale(0.015625)"/>
       <path id="ArialMT-65" d="M 2694 1069 
L 3275 997 
Q 3138 488 2766 206 
Q 2394 -75 1816 -75 
Q 1088 -75 661 373 
Q 234 822 234 1631 
Q 234 2469 665 2931 
Q 1097 3394 1784 3394 
Q 2450 3394 2872 2941 
Q 3294 2488 3294 1666 
Q 3294 1616 3291 1516 
L 816 1516 
Q 847 969 1125 678 
Q 1403 388 1819 388 
Q 2128 388 2347 550 
Q 2566 713 2694 1069 
z
M 847 1978 
L 2700 1978 
Q 2663 2397 2488 2606 
Q 2219 2931 1791 2931 
Q 1403 2931 1139 2672 
Q 875 2413 847 1978 
z
" transform="scale(0.015625)"/>
      </defs>
      <use xlink:href="#DejaVuSans-Oblique-58" transform="translate(0 0.09375)"/>
      <use xlink:href="#ArialMT-20" transform="translate(68.505859 0.09375)"/>
      <use xlink:href="#ArialMT-56" transform="translate(96.289062 0.09375)"/>
      <use xlink:href="#ArialMT-61" transform="translate(162.988281 0.09375)"/>
      <use xlink:href="#ArialMT-6c" transform="translate(218.603516 0.09375)"/>
      <use xlink:href="#ArialMT-75" transform="translate(240.820312 0.09375)"/>
      <use xlink:href="#ArialMT-65" transform="translate(296.435547 0.09375)"/>
     </g>
    </g>
   </g>
   <g id="matplotlib.axis_2">
    <g id="ytick_1">
     <g id="line2d_28">
      <path d="M 90 640.8 
L 648 640.8 
" clip-path="url(#pd856aeedb4)" style="fill: none; stroke: #c0c0c0; stroke-width: 1.5; stroke-linecap: round"/>
     </g>
     <g id="line2d_29">
      <defs>
       <path id="m0cda3663e9" d="M 0 0 
L -9 0 
" style="stroke: #000000; stroke-width: 1.875"/>
      </defs>
      <g>
       <use xlink:href="#m0cda3663e9" x="90" y="640.8" style="stroke: #000000; stroke-width: 1.875"/>
      </g>
     </g>
     <g id="text_8">
      <!-- 0 -->
      <g transform="translate(67.490313 647.242031) scale(0.18 -0.18)">
       <use xlink:href="#ArialMT-30"/>
      </g>
     </g>
    </g>
    <g id="ytick_2">
     <g id="line2d_30">
      <path d="M 90 541.8 
L 648 541.8 
" clip-path="url(#pd856aeedb4)" style="fill: none; stroke: #c0c0c0; stroke-width: 1.5; stroke-linecap: round"/>
     </g>
     <g id="line2d_31">
      <g>
       <use xlink:href="#m0cda3663e9" x="90" y="541.8" style="stroke: #000000; stroke-width: 1.875"/>
      </g>
     </g>
     <g id="text_9">
      <!-- 1 -->
      <g transform="translate(67.490313 548.242031) scale(0.18 -0.18)">
       <use xlink:href="#ArialMT-31"/>
      </g>
     </g>
    </g>
    <g id="ytick_3">
     <g id="line2d_32">
      <path d="M 90 442.8 
L 648 442.8 
" clip-path="url(#pd856aeedb4)" style="fill: none; stroke: #c0c0c0; stroke-width: 1.5; stroke-linecap: round"/>
     </g>
     <g id="line2d_33">
      <g>
       <use xlink:href="#m0cda3663e9" x="90" y="442.8" style="stroke: #000000; stroke-width: 1.875"/>
      </g>
     </g>
     <g id="text_10">
      <!-- 2 -->
      <g transform="translate(67.490313 449.242031) scale(0.18 -0.18)">
       <use xlink:href="#ArialMT-32"/>
      </g>
     </g>
    </g>
    <g id="ytick_4">
     <g id="line2d_34">
      <path d="M 90 343.8 
L 648 343.8 
" clip-path="url(#pd856aeedb4)" style="fill: none; stroke: #c0c0c0; stroke-width: 1.5; stroke-linecap: round"/>
     </g>
     <g id="line2d_35">
      <g>
       <use xlink:href="#m0cda3663e9" x="90" y="343.8" style="stroke: #000000; stroke-width: 1.875"/>
      </g>
     </g>
     <g id="text_11">
      <!-- 3 -->
      <g transform="translate(67.490313 350.242031) scale(0.18 -0.18)">
       <defs>
        <path id="ArialMT-33" d="M 269 1209 
L 831 1284 
Q 928 806 1161 595 
Q 1394 384 1728 384 
Q 2125 384 2398 659 
Q 2672 934 2672 1341 
Q 2672 1728 2419 1979 
Q 2166 2231 1775 2231 
Q 1616 2231 1378 2169 
L 1441 2663 
Q 1497 2656 1531 2656 
Q 1891 2656 2178 2843 
Q 2466 3031 2466 3422 
Q 2466 3731 2256 3934 
Q 2047 4138 1716 4138 
Q 1388 4138 1169 3931 
Q 950 3725 888 3313 
L 325 3413 
Q 428 3978 793 4289 
Q 1159 4600 1703 4600 
Q 2078 4600 2393 4439 
Q 2709 4278 2876 4000 
Q 3044 3722 3044 3409 
Q 3044 3113 2884 2869 
Q 2725 2625 2413 2481 
Q 2819 2388 3044 2092 
Q 3269 1797 3269 1353 
Q 3269 753 2831 336 
Q 2394 -81 1725 -81 
Q 1122 -81 723 278 
Q 325 638 269 1209 
z
" transform="scale(0.015625)"/>
       </defs>
       <use xlink:href="#ArialMT-33"/>
      </g>
     </g>
    </g>
    <g id="ytick_5">
     <g id="line2d_36">
      <path d="M 90 244.8 
L 648 244.8 
" clip-path="url(#pd856aeedb4)" style="fill: none; stroke: #c0c0c0; stroke-width: 1.5; stroke-linecap: round"/>
     </g>
     <g id="line2d_37">
      <g>
       <use xlink:href="#m0cda3663e9" x="90" y="244.8" style="stroke: #000000; stroke-width: 1.875"/>
      </g>
     </g>
     <g id="text_12">
      <!-- 4 -->
      <g transform="translate(67.490313 251.242031) scale(0.18 -0.18)">
       <use xlink:href="#ArialMT-34"/>
      </g>
     </g>
    </g>
    <g id="ytick_6">
     <g id="line2d_38">
      <path d="M 90 145.8 
L 648 145.8 
" clip-path="url(#pd856aeedb4)" style="fill: none; stroke: #c0c0c0; stroke-width: 1.5; stroke-linecap: round"/>
     </g>
     <g id="line2d_39">
      <g>
       <use xlink:href="#m0cda3663e9" x="90" y="145.8" style="stroke: #000000; stroke-width: 1.875"/>
      </g>
     </g>
     <g id="text_13">
      <!-- 5 -->
      <g transform="translate(67.490313 152.242031) scale(0.18 -0.18)">
       <defs>
        <path id="ArialMT-35" d="M 266 1200 
L 856 1250 
Q 922 819 1161 601 
Q 1400 384 1738 384 
Q 2144 384 2425 690 
Q 2706 997 2706 1503 
Q 2706 1984 2436 2262 
Q 2166 2541 1728 2541 
Q 1456 2541 1237 2417 
Q 1019 2294 894 2097 
L 366 2166 
L 809 4519 
L 3088 4519 
L 3088 3981 
L 1259 3981 
L 1013 2750 
Q 1425 3038 1878 3038 
Q 2478 3038 2890 2622 
Q 3303 2206 3303 1553 
Q 3303 931 2941 478 
Q 2500 -78 1738 -78 
Q 1113 -78 717 272 
Q 322 622 266 1200 
z
" transform="scale(0.015625)"/>
       </defs>
       <use xlink:href="#ArialMT-35"/>
      </g>
     </g>
    </g>
    <g id="ytick_7">
     <g id="line2d_40">
      <defs>
       <path id="mace6aa68ca" d="M 0 0 
L -6 0 
" style="stroke: #000000; stroke-width: 1.5"/>
      </defs>
      <g>
       <use xlink:href="#mace6aa68ca" x="90" y="621" style="stroke: #000000; stroke-width: 1.5"/>
      </g>
     </g>
    </g>
    <g id="ytick_8">
     <g id="line2d_41">
      <g>
       <use xlink:href="#mace6aa68ca" x="90" y="601.2" style="stroke: #000000; stroke-width: 1.5"/>
      </g>
     </g>
    </g>
    <g id="ytick_9">
     <g id="line2d_42">
      <g>
       <use xlink:href="#mace6aa68ca" x="90" y="581.4" style="stroke: #000000; stroke-width: 1.5"/>
      </g>
     </g>
    </g>
    <g id="ytick_10">
     <g id="line2d_43">
      <g>
       <use xlink:href="#mace6aa68ca" x="90" y="561.6" style="stroke: #000000; stroke-width: 1.5"/>
      </g>
     </g>
    </g>
    <g id="ytick_11">
     <g id="line2d_44">
      <g>
       <use xlink:href="#mace6aa68ca" x="90" y="522" style="stroke: #000000; stroke-width: 1.5"/>
      </g>
     </g>
    </g>
    <g id="ytick_12">
     <g id="line2d_45">
      <g>
       <use xlink:href="#mace6aa68ca" x="90" y="502.2" style="stroke: #000000; stroke-width: 1.5"/>
      </g>
     </g>
    </g>
    <g id="ytick_13">
     <g id="line2d_46">
      <g>
       <use xlink:href="#mace6aa68ca" x="90" y="482.4" style="stroke: #000000; stroke-width: 1.5"/>
      </g>
     </g>
    </g>
    <g id="ytick_14">
     <g id="line2d_47">
      <g>
       <use xlink:href="#mace6aa68ca" x="90" y="462.6" style="stroke: #000000; stroke-width: 1.5"/>
      </g>
     </g>
    </g>
    <g id="ytick_15">
     <g id="line2d_48">
      <g>
       <use xlink:href="#mace6aa68ca" x="90" y="423" style="stroke: #000000; stroke-width: 1.5"/>
      </g>
     </g>
    </g>
    <g id="ytick_16">
     <g id="line2d_49">
      <g>
       <use xlink:href="#mace6aa68ca" x="90" y="403.2" style="stroke: #000000; stroke-width: 1.5"/>
      </g>
     </g>
    </g>
    <g id="ytick_17">
     <g id="line2d_50">
      <g>
       <use xlink:href="#mace6aa68ca" x="90" y="383.4" style="stroke: #000000; stroke-width: 1.5"/>
      </g>
     </g>
    </g>
    <g id="ytick_18">
     <g id="line2d_51">
      <g>
       <use xlink:href="#mace6aa68ca" x="90" y="363.6" style="stroke: #000000; stroke-width: 1.5"/>
      </g>
     </g>
    </g>
    <g id="ytick_19">
     <g id="line2d_52">
      <g>
       <use xlink:href="#mace6aa68ca" x="90" y="324" style="stroke: #000000; stroke-width: 1.5"/>
      </g>
     </g>
    </g>
    <g id="ytick_20">
     <g id="line2d_53">
      <g>
       <use xlink:href="#mace6aa68ca" x="90" y="304.2" style="stroke: #000000; stroke-width: 1.5"/>
      </g>
     </g>
    </g>
    <g id="ytick_21">
     <g id="line2d_54">
      <g>
       <use xlink:href="#mace6aa68ca" x="90" y="284.4" style="stroke: #000000; stroke-width: 1.5"/>
      </g>
     </g>
    </g>
    <g id="ytick_22">
     <g id="line2d_55">
      <g>
       <use xlink:href="#mace6aa68ca" x="90" y="264.6" style="stroke: #000000; stroke-width: 1.5"/>
      </g>
     </g>
    </g>
    <g id="ytick_23">
     <g id="line2d_56">
      <g>
       <use xlink:href="#mace6aa68ca" x="90" y="225" style="stroke: #000000; stroke-width: 1.5"/>
      </g>
     </g>
    </g>
    <g id="ytick_24">
     <g id="line2d_57">
      <g>
       <use xlink:href="#mace6aa68ca" x="90" y="205.2" style="stroke: #000000; stroke-width: 1.5"/>
      </g>
     </g>
    </g>
    <g id="ytick_25">
     <g id="line2d_58">
      <g>
       <use xlink:href="#mace6aa68ca" x="90" y="185.4" style="stroke: #000000; stroke-width: 1.5"/>
      </g>
     </g>
    </g>
    <g id="ytick_26">
     <g id="line2d_59">
      <g>
       <use xlink:href="#mace6aa68ca" x="90" y="165.6" style="stroke: #000000; stroke-width: 1.5"/>
      </g>
     </g>
    </g>
    <g id="ytick_27">
     <g id="line2d_60">
      <g>
       <use xlink:href="#mace6aa68ca" x="90" y="126" style="stroke: #000000; stroke-width: 1.5"/>
      </g>
     </g>
    </g>
    <g id="ytick_28">
     <g id="line2d_61">
      <g>
       <use xlink:href="#mace6aa68ca" x="90" y="106.2" style="stroke: #000000; stroke-width: 1.5"/>
      </g>
     </g>
    </g>
    <g id="ytick_29">
     <g id="line2d_62">
      <g>
       <use xlink:href="#mace6aa68ca" x="90" y="86.4" style="stroke: #000000; stroke-width: 1.5"/>
      </g>
     </g>
    </g>
    <g id="text_14">
     <!-- Density -->
     <g style="fill: #262626" transform="translate(43.280937 396.94375) rotate(-90) scale(0.2 -0.2)">
      <defs>
       <path id="ArialMT-44" d="M 494 0 
L 494 4581 
L 2072 4581 
Q 2606 4581 2888 4516 
Q 3281 4425 3559 4188 
Q 3922 3881 4101 3404 
Q 4281 2928 4281 2316 
Q 4281 1794 4159 1391 
Q 4038 988 3847 723 
Q 3656 459 3429 307 
Q 3203 156 2883 78 
Q 2563 0 2147 0 
L 494 0 
z
M 1100 541 
L 2078 541 
Q 2531 541 2789 625 
Q 3047 709 3200 863 
Q 3416 1078 3536 1442 
Q 3656 1806 3656 2325 
Q 3656 3044 3420 3430 
Q 3184 3816 2847 3947 
Q 2603 4041 2063 4041 
L 1100 4041 
L 1100 541 
z
" transform="scale(0.015625)"/>
       <path id="ArialMT-6e" d="M 422 0 
L 422 3319 
L 928 3319 
L 928 2847 
Q 1294 3394 1984 3394 
Q 2284 3394 2536 3286 
Q 2788 3178 2913 3003 
Q 3038 2828 3088 2588 
Q 3119 2431 3119 2041 
L 3119 0 
L 2556 0 
L 2556 2019 
Q 2556 2363 2490 2533 
Q 2425 2703 2258 2804 
Q 2091 2906 1866 2906 
Q 1506 2906 1245 2678 
Q 984 2450 984 1813 
L 984 0 
L 422 0 
z
" transform="scale(0.015625)"/>
       <path id="ArialMT-73" d="M 197 991 
L 753 1078 
Q 800 744 1014 566 
Q 1228 388 1613 388 
Q 2000 388 2187 545 
Q 2375 703 2375 916 
Q 2375 1106 2209 1216 
Q 2094 1291 1634 1406 
Q 1016 1563 777 1677 
Q 538 1791 414 1992 
Q 291 2194 291 2438 
Q 291 2659 392 2848 
Q 494 3038 669 3163 
Q 800 3259 1026 3326 
Q 1253 3394 1513 3394 
Q 1903 3394 2198 3281 
Q 2494 3169 2634 2976 
Q 2775 2784 2828 2463 
L 2278 2388 
Q 2241 2644 2061 2787 
Q 1881 2931 1553 2931 
Q 1166 2931 1000 2803 
Q 834 2675 834 2503 
Q 834 2394 903 2306 
Q 972 2216 1119 2156 
Q 1203 2125 1616 2013 
Q 2213 1853 2448 1751 
Q 2684 1650 2818 1456 
Q 2953 1263 2953 975 
Q 2953 694 2789 445 
Q 2625 197 2315 61 
Q 2006 -75 1616 -75 
Q 969 -75 630 194 
Q 291 463 197 991 
z
" transform="scale(0.015625)"/>
       <path id="ArialMT-69" d="M 425 3934 
L 425 4581 
L 988 4581 
L 988 3934 
L 425 3934 
z
M 425 0 
L 425 3319 
L 988 3319 
L 988 0 
L 425 0 
z
" transform="scale(0.015625)"/>
       <path id="ArialMT-74" d="M 1650 503 
L 1731 6 
Q 1494 -44 1306 -44 
Q 1000 -44 831 53 
Q 663 150 594 308 
Q 525 466 525 972 
L 525 2881 
L 113 2881 
L 113 3319 
L 525 3319 
L 525 4141 
L 1084 4478 
L 1084 3319 
L 1650 3319 
L 1650 2881 
L 1084 2881 
L 1084 941 
Q 1084 700 1114 631 
Q 1144 563 1211 522 
Q 1278 481 1403 481 
Q 1497 481 1650 503 
z
" transform="scale(0.015625)"/>
       <path id="ArialMT-79" d="M 397 -1278 
L 334 -750 
Q 519 -800 656 -800 
Q 844 -800 956 -737 
Q 1069 -675 1141 -563 
Q 1194 -478 1313 -144 
Q 1328 -97 1363 -6 
L 103 3319 
L 709 3319 
L 1400 1397 
Q 1534 1031 1641 628 
Q 1738 1016 1872 1384 
L 2581 3319 
L 3144 3319 
L 1881 -56 
Q 1678 -603 1566 -809 
Q 1416 -1088 1222 -1217 
Q 1028 -1347 759 -1347 
Q 597 -1347 397 -1278 
z
" transform="scale(0.015625)"/>
      </defs>
      <use xlink:href="#ArialMT-44"/>
      <use xlink:href="#ArialMT-65" transform="translate(72.216797 0)"/>
      <use xlink:href="#ArialMT-6e" transform="translate(127.832031 0)"/>
      <use xlink:href="#ArialMT-73" transform="translate(183.447266 0)"/>
      <use xlink:href="#ArialMT-69" transform="translate(233.447266 0)"/>
      <use xlink:href="#ArialMT-74" transform="translate(255.664062 0)"/>
      <use xlink:href="#ArialMT-79" transform="translate(283.447266 0)"/>
     </g>
    </g>
   </g>
   <g id="line2d_63">
    <path d="M 90.558 640.8 
L 181.729028 640.688954 
L 192.199494 640.436494 
L 199.43971 640.048561 
L 205.176189 639.525478 
L 210.021564 638.865982 
L 214.254306 638.071698 
L 218.09719 637.127811 
L 221.60591 636.040861 
L 224.891854 634.792473 
L 228.010716 633.368884 
L 230.962497 631.777837 
L 233.802889 629.995596 
L 236.587588 627.982726 
L 239.316592 625.72945 
L 241.989903 623.228145 
L 244.607519 620.473531 
L 247.225136 617.393737 
L 249.842752 613.966123 
L 252.460369 610.168494 
L 255.077986 605.979388 
L 257.751296 601.275865 
L 260.480301 596.01014 
L 263.209305 590.255937 
L 265.994004 583.862898 
L 268.834396 576.783697 
L 271.786176 568.816182 
L 274.793651 560.048875 
L 277.912513 550.260475 
L 281.142763 539.378412 
L 284.540095 527.130445 
L 288.104509 513.423804 
L 291.891699 497.950252 
L 295.957359 480.378739 
L 300.468571 459.859025 
L 305.64811 435.225505 
L 312.554162 401.210887 
L 325.419469 337.694727 
L 330.320538 314.74751 
L 334.386198 296.742243 
L 337.950612 281.941665 
L 341.125168 269.676377 
L 344.021255 259.339194 
L 346.694565 250.590561 
L 349.200794 243.134228 
L 351.539941 236.866206 
L 353.712005 231.673148 
L 355.716988 227.436918 
L 357.610583 223.942913 
L 359.39279 221.115641 
L 361.063609 218.879456 
L 362.623041 217.15989 
L 364.071084 215.884763 
L 365.463433 214.953418 
L 366.744394 214.353476 
L 367.969662 214.011029 
L 369.194929 213.895474 
L 370.420196 214.007087 
L 371.645464 214.345811 
L 372.926425 214.942334 
L 374.207386 215.785817 
L 375.599735 216.9813 
L 377.047779 218.530287 
L 378.60721 220.543568 
L 380.222335 223.0013 
L 381.948848 226.040985 
L 383.786749 229.735708 
L 385.736038 234.158636 
L 387.852409 239.530296 
L 390.080167 245.80109 
L 392.475008 253.214518 
L 395.092625 262.068732 
L 397.877323 272.288284 
L 400.940491 284.397841 
L 404.337824 298.771593 
L 408.125014 315.790183 
L 412.580531 336.879452 
L 418.261316 364.914952 
L 436.751714 457.006003 
L 441.597089 479.523997 
L 445.829831 498.172379 
L 449.728409 514.372919 
L 453.404211 528.70917 
L 456.857237 541.297313 
L 460.143181 552.457414 
L 463.317737 562.467275 
L 466.380905 571.403757 
L 469.332686 579.34878 
L 472.228772 586.518265 
L 475.069165 592.96231 
L 477.853863 598.732618 
L 480.582868 603.881321 
L 483.256178 608.460008 
L 485.929489 612.600902 
L 488.547105 616.254119 
L 491.164722 619.533591 
L 493.782338 622.463276 
L 496.399955 625.067495 
L 499.073266 627.416546 
L 501.80227 629.517383 
L 504.586968 631.379322 
L 507.427361 633.013817 
L 510.379141 634.459245 
L 513.498004 635.738916 
L 516.783948 636.847726 
L 520.348362 637.813428 
L 524.24694 638.63435 
L 528.591069 639.315608 
L 533.547833 639.861081 
L 539.451393 640.2777 
L 546.858691 640.566748 
L 557.384851 640.736589 
L 577.71315 640.797572 
L 647.442 640.8 
L 647.442 640.8 
" clip-path="url(#pd856aeedb4)" style="fill: none; stroke: #a4031f; stroke-width: 2; stroke-linecap: round"/>
   </g>
   <g id="line2d_64">
    <path d="M 90.558 640.8 
L 113.448221 640.68978 
L 121.189683 640.416202 
L 127.31602 639.982928 
L 132.662641 639.385902 
L 137.508016 638.625456 
L 142.074922 637.684869 
L 146.419051 636.562618 
L 150.596099 635.253418 
L 154.661759 633.745448 
L 158.671725 632.018241 
L 162.625996 630.070213 
L 166.524574 627.90252 
L 170.423152 625.482441 
L 174.377424 622.764772 
L 178.38739 619.735005 
L 182.45305 616.380373 
L 186.574403 612.690104 
L 190.807145 608.599896 
L 195.151275 604.091912 
L 199.662486 599.087602 
L 204.340779 593.564058 
L 209.241849 587.431681 
L 214.421388 580.591931 
L 219.990785 572.861299 
L 226.005734 564.123841 
L 232.68901 554.014322 
L 240.486166 541.80184 
L 250.845244 525.129416 
L 272.621586 489.982086 
L 280.53013 477.714746 
L 287.213406 467.748841 
L 293.172661 459.252303 
L 298.63067 451.848044 
L 303.754515 445.267089 
L 308.544196 439.470945 
L 313.111102 434.289406 
L 317.455231 429.693045 
L 321.632279 425.595193 
L 325.642245 421.970993 
L 329.485129 418.792934 
L 333.216625 415.991868 
L 336.836733 413.549515 
L 340.345453 411.446368 
L 343.798479 409.634837 
L 347.140117 408.129121 
L 350.426061 406.888457 
L 353.656311 405.902746 
L 356.886562 405.150405 
L 360.061118 404.639303 
L 363.235674 404.354892 
L 366.354536 404.296171 
L 369.529093 404.460523 
L 372.703649 404.850003 
L 375.878205 405.463171 
L 379.108455 406.314757 
L 382.3944 407.41411 
L 385.736038 408.770019 
L 389.13337 410.390621 
L 392.586396 412.283316 
L 396.15081 414.49112 
L 399.826612 417.0315 
L 403.613802 419.920713 
L 407.568074 423.221995 
L 411.633734 426.907736 
L 415.922169 431.10134 
L 420.377687 435.773694 
L 425.05598 441.004494 
L 430.012743 446.883638 
L 435.303671 453.508816 
L 441.040149 461.056978 
L 447.277874 469.638905 
L 454.351008 479.76027 
L 462.760797 492.201762 
L 474.623613 510.192384 
L 493.503869 538.818761 
L 502.192128 551.561239 
L 509.543732 561.957678 
L 516.11562 570.873222 
L 522.186263 578.738265 
L 527.867048 585.737822 
L 533.213669 591.979566 
L 538.337514 597.625627 
L 543.294277 602.759446 
L 548.083959 607.40225 
L 552.706558 611.578838 
L 557.273464 615.406441 
L 561.728981 618.851846 
L 566.128805 621.973599 
L 570.472934 624.783589 
L 574.76137 627.295302 
L 579.049806 629.551277 
L 583.338241 631.558076 
L 587.682371 633.345388 
L 590.856927 634.679379 
L 594.142871 636.011792 
L 597.540203 637.149504 
L 601.160311 638.126141 
L 605.058889 638.943968 
L 609.291631 639.602249 
L 614.081312 640.115965 
L 619.650709 640.481528 
L 626.612455 640.704753 
L 637.138616 640.794828 
L 647.442 640.8 
L 647.442 640.8 
" clip-path="url(#pd856aeedb4)" style="fill: none; stroke: #dddde3; stroke-width: 2; stroke-linecap: round"/>
   </g>
   <g id="line2d_65">
    <path d="M 90.558 640.8 
L 114.896265 640.68893 
L 116.956941 640.432752 
L 118.460679 640.033951 
L 119.74164 639.470345 
L 120.911213 638.710606 
L 122.025093 637.712671 
L 123.083278 636.467305 
L 124.197158 634.793389 
L 125.311037 632.699183 
L 126.48061 630.000536 
L 127.705878 626.579791 
L 128.986839 622.316053 
L 130.379188 616.856093 
L 131.827231 610.255851 
L 133.442356 601.804061 
L 135.224563 591.210745 
L 137.173852 578.240974 
L 139.457305 561.481541 
L 142.242004 539.297496 
L 146.363357 504.460137 
L 152.935246 449.00743 
L 156.22119 423.247773 
L 159.061582 402.68664 
L 161.623505 385.714861 
L 164.018346 371.301153 
L 166.246104 359.193404 
L 168.362475 348.86101 
L 170.423152 339.886364 
L 172.372441 332.362971 
L 174.266036 325.928142 
L 176.048243 320.631077 
L 177.774756 316.174177 
L 179.445575 312.466436 
L 181.0607 309.422824 
L 182.564437 307.04459 
L 184.012481 305.149941 
L 185.40483 303.676747 
L 186.741485 302.568639 
L 188.07814 301.745915 
L 189.359102 301.212175 
L 190.640063 300.915296 
L 191.921024 300.843276 
L 193.25768 300.995174 
L 194.650029 301.386179 
L 196.098072 302.029703 
L 197.657503 302.975325 
L 199.328322 304.258586 
L 201.110529 305.911314 
L 203.059818 308.02546 
L 205.231883 310.721515 
L 207.626724 314.063385 
L 210.300034 318.192265 
L 213.307509 323.263959 
L 216.760535 329.543956 
L 220.7705 337.31453 
L 225.727264 347.426061 
L 232.68901 362.178262 
L 251.290796 401.811679 
L 258.252542 415.994238 
L 264.54596 428.321739 
L 270.505215 439.513876 
L 276.241694 449.822815 
L 281.866785 459.479968 
L 287.436182 468.600892 
L 292.949885 477.204567 
L 298.407894 485.313585 
L 303.865903 493.029401 
L 309.379606 500.439353 
L 314.893309 507.478806 
L 320.462706 514.230394 
L 326.087797 520.701254 
L 331.768581 526.899497 
L 337.560754 532.890044 
L 343.408621 538.620309 
L 349.367876 544.150772 
L 355.438518 549.483799 
L 361.676243 554.667679 
L 368.025356 559.656559 
L 374.54155 564.495762 
L 381.28052 569.222263 
L 388.186572 573.794021 
L 395.315401 578.246391 
L 402.667005 582.5761 
L 410.297078 586.811334 
L 418.205622 590.946347 
L 426.448329 595.003711 
L 435.025201 598.976206 
L 443.99193 602.881923 
L 453.348517 606.712614 
L 463.094961 610.461406 
L 473.286958 614.141501 
L 483.868812 617.724141 
L 494.729136 621.166269 
L 505.812236 624.445412 
L 516.839642 627.477244 
L 527.644272 630.218335 
L 537.947656 632.605561 
L 547.694101 634.638256 
L 556.827912 636.319093 
L 565.460477 637.683108 
L 573.647491 638.752891 
L 581.556034 639.563373 
L 589.464578 640.148934 
L 597.707285 640.532056 
L 607.119566 640.738085 
L 621.599998 640.799227 
L 647.442 640.8 
L 647.442 640.8 
" clip-path="url(#pd856aeedb4)" style="fill: none; stroke: #88bf9b; stroke-width: 2; stroke-linecap: round"/>
   </g>
   <g id="line2d_66">
    <path d="M 90.558 640.311549 
L 91.950349 640.089076 
L 95.904621 639.732732 
L 107.600355 638.960469 
L 135.558727 637.099701 
L 153.26941 635.686965 
L 169.030803 634.209598 
L 183.399847 632.642472 
L 196.710706 630.969535 
L 209.074767 629.194605 
L 220.659113 627.310366 
L 231.575131 625.312537 
L 241.934209 623.191937 
L 251.736347 620.959821 
L 261.03724 618.6162 
L 269.948275 616.14262 
L 278.469453 613.54706 
L 286.600772 610.839951 
L 294.453622 607.992158 
L 302.028002 605.008647 
L 309.323912 601.896165 
L 316.397046 598.636667 
L 323.247404 595.234607 
L 329.874986 591.695949 
L 336.335487 587.995226 
L 342.628905 584.134749 
L 348.755242 580.118022 
L 354.770191 575.909594 
L 360.673752 571.50779 
L 366.465924 566.911767 
L 372.146709 562.121596 
L 377.7718 557.087027 
L 383.341197 551.80108 
L 388.799206 546.314893 
L 394.257215 540.5108 
L 399.65953 534.438195 
L 405.006151 528.093042 
L 410.352772 521.400912 
L 415.699393 514.348952 
L 421.046014 506.925322 
L 426.392635 499.119618 
L 431.79495 490.835942 
L 437.252959 482.055876 
L 442.766662 472.764226 
L 448.447447 462.749877 
L 454.295314 451.983341 
L 460.421651 440.228223 
L 466.937845 427.233346 
L 474.178061 412.285081 
L 483.311872 392.883043 
L 499.852981 357.666289 
L 505.478072 346.280259 
L 509.989284 337.632882 
L 513.832167 330.733806 
L 517.173806 325.175561 
L 520.18128 320.594768 
L 522.85459 316.913008 
L 525.305125 313.904604 
L 527.532884 311.50922 
L 529.593561 309.610368 
L 531.487156 308.157594 
L 533.269363 307.065811 
L 534.940182 306.301874 
L 536.499613 305.829816 
L 538.00335 305.607577 
L 539.451393 305.621135 
L 540.843743 305.855039 
L 542.236092 306.315453 
L 543.628441 307.0123 
L 545.02079 307.955554 
L 546.468833 309.208653 
L 547.972571 310.815446 
L 549.532002 312.823607 
L 551.147127 315.284746 
L 552.817946 318.254441 
L 554.544459 321.792168 
L 556.326666 325.961101 
L 558.164567 330.827729 
L 560.113856 336.636598 
L 562.118839 343.323219 
L 564.23521 351.178922 
L 566.462968 360.343101 
L 568.746421 370.690828 
L 571.196956 382.858796 
L 573.758878 396.723181 
L 576.543577 413.047097 
L 579.606745 432.370562 
L 583.115465 455.975933 
L 587.793759 489.094758 
L 595.869384 546.388763 
L 599.043941 567.166817 
L 601.605863 582.533831 
L 603.833622 594.614706 
L 605.838605 604.317254 
L 607.676506 612.153049 
L 609.347325 618.35886 
L 610.906756 623.351992 
L 612.410493 627.445192 
L 613.802842 630.62513 
L 615.139498 633.155974 
L 616.420459 635.136479 
L 617.70142 636.721631 
L 618.982382 637.956169 
L 620.263343 638.888256 
L 621.599998 639.592029 
L 623.048041 640.107938 
L 624.774554 640.476555 
L 626.946619 640.696842 
L 630.399645 640.790774 
L 646.272427 640.8 
L 647.442 640.8 
L 647.442 640.8 
" clip-path="url(#pd856aeedb4)" style="fill: none; stroke: #3c91e6; stroke-width: 2; stroke-linecap: round"/>
   </g>
   <g id="line2d_67">
    <path d="M 90.558 640.8 
L 151.264427 640.69095 
L 153.826349 640.436017 
L 155.66425 640.0413 
L 157.223681 639.483378 
L 158.616031 638.749094 
L 159.896992 637.826773 
L 161.177953 636.622984 
L 162.458914 635.096344 
L 163.739876 633.21 
L 165.076531 630.825374 
L 166.46888 627.862757 
L 167.916923 624.246775 
L 169.476355 619.740139 
L 171.202868 614.030303 
L 173.096463 606.956137 
L 175.212833 598.16495 
L 177.774756 586.521493 
L 181.227782 569.69945 
L 189.581878 528.630687 
L 192.589352 515.168778 
L 195.206968 504.422846 
L 197.601809 495.486512 
L 199.885262 487.809393 
L 202.001633 481.444557 
L 204.06231 475.938798 
L 206.011599 471.346528 
L 207.905194 467.441036 
L 209.743095 464.15326 
L 211.525302 461.416207 
L 213.251815 459.166353 
L 214.922634 457.344485 
L 216.593453 455.851436 
L 218.208578 454.7012 
L 219.823703 453.820117 
L 221.438828 453.18972 
L 223.053953 452.791942 
L 224.724772 452.606561 
L 226.451285 452.636903 
L 228.289186 452.895083 
L 230.238475 453.398715 
L 232.354846 454.18432 
L 234.638299 455.276814 
L 237.144527 456.72783 
L 239.98492 458.639522 
L 243.21517 461.091993 
L 247.058054 464.302584 
L 251.903429 468.659302 
L 259.477809 475.812176 
L 271.117849 486.773738 
L 277.634043 492.588351 
L 283.426216 497.461734 
L 288.828531 501.720898 
L 294.063764 505.566664 
L 299.131915 509.01685 
L 304.144373 512.161755 
L 309.101136 515.010244 
L 314.002205 517.573175 
L 318.903275 519.88738 
L 323.804344 521.957001 
L 328.705413 523.786531 
L 333.606482 525.380493 
L 338.507552 526.743201 
L 343.464315 527.890183 
L 348.421078 528.808134 
L 353.377842 529.499894 
L 358.334605 529.967553 
L 363.291368 530.212399 
L 368.248131 530.234875 
L 373.204895 530.034551 
L 378.161658 529.610113 
L 383.062727 528.967939 
L 387.963797 528.10154 
L 392.809172 527.02087 
L 397.654547 525.712962 
L 402.499923 524.172759 
L 407.289604 522.41644 
L 412.079285 520.421751 
L 416.813273 518.210011 
L 421.54726 515.753421 
L 426.281248 513.046227 
L 431.015235 510.083271 
L 435.804916 506.821002 
L 440.650292 503.247675 
L 445.551361 499.354095 
L 450.563818 495.086245 
L 455.799051 490.332203 
L 461.368448 484.967782 
L 467.606173 478.640235 
L 476.015962 469.759537 
L 486.152265 459.1052 
L 490.774864 454.572864 
L 494.394972 451.320164 
L 497.45814 448.856417 
L 500.131451 446.984558 
L 502.470598 445.60624 
L 504.586968 444.604888 
L 506.536257 443.919593 
L 508.374158 443.508238 
L 510.100671 443.352828 
L 511.715797 443.430434 
L 513.275228 443.728421 
L 514.778965 444.240389 
L 516.282702 444.989768 
L 517.786439 445.993608 
L 519.290176 447.269216 
L 520.793914 448.833998 
L 522.353345 450.780696 
L 523.96847 453.164633 
L 525.639289 456.045861 
L 527.365802 459.488715 
L 529.148009 463.560968 
L 530.98591 468.332418 
L 532.879505 473.872739 
L 534.884488 480.440601 
L 537.000859 488.156374 
L 539.228617 497.127848 
L 541.679152 507.947273 
L 544.408157 521.040253 
L 547.694101 537.951746 
L 558.554425 594.835501 
L 560.837878 605.087398 
L 562.84286 613.102688 
L 564.625068 619.342412 
L 566.240193 624.227453 
L 567.74393 628.103378 
L 569.191973 631.2316 
L 570.528628 633.615617 
L 571.865284 635.549603 
L 573.146245 637.019984 
L 574.427206 638.159845 
L 575.763861 639.048322 
L 577.156211 639.7058 
L 578.715642 640.190878 
L 580.553543 640.521136 
L 583.004077 640.717871 
L 587.236819 640.794689 
L 616.531847 640.8 
L 647.442 640.8 
L 647.442 640.8 
" clip-path="url(#pd856aeedb4)" style="fill: none; stroke: #ffa0ac; stroke-width: 2; stroke-linecap: round"/>
   </g>
   <g id="patch_3">
    <path d="M 90 640.8 
L 90 86.4 
" style="fill: none; stroke: #000000; stroke-width: 1.875; stroke-linejoin: miter; stroke-linecap: square"/>
   </g>
   <g id="patch_4">
    <path d="M 648 640.8 
L 648 86.4 
" style="fill: none; stroke: #000000; stroke-width: 1.875; stroke-linejoin: miter; stroke-linecap: square"/>
   </g>
   <g id="patch_5">
    <path d="M 90 640.8 
L 648 640.8 
" style="fill: none; stroke: #000000; stroke-width: 1.875; stroke-linejoin: miter; stroke-linecap: square"/>
   </g>
   <g id="patch_6">
    <path d="M 90 86.4 
L 648 86.4 
" style="fill: none; stroke: #000000; stroke-width: 1.875; stroke-linejoin: miter; stroke-linecap: square"/>
   </g>
   <g id="text_15">
    <!-- $\,N\!-\!K\{C\}\,$ PDF -->
    <g style="fill: #262626" transform="translate(279.56 66.4) scale(0.26 -0.26)">
     <defs>
      <path id="DejaVuSans-Oblique-4e" d="M 1081 4666 
L 1931 4666 
L 3219 666 
L 4000 4666 
L 4616 4666 
L 3706 0 
L 2853 0 
L 1569 4025 
L 788 0 
L 172 0 
L 1081 4666 
z
" transform="scale(0.015625)"/>
      <path id="DejaVuSans-2212" d="M 678 2272 
L 4684 2272 
L 4684 1741 
L 678 1741 
L 678 2272 
z
" transform="scale(0.015625)"/>
      <path id="DejaVuSans-Oblique-4b" d="M 1081 4666 
L 1716 4666 
L 1331 2700 
L 3781 4666 
L 4622 4666 
L 1850 2438 
L 3878 0 
L 3109 0 
L 1247 2272 
L 806 0 
L 172 0 
L 1081 4666 
z
" transform="scale(0.015625)"/>
      <path id="DejaVuSans-7b" d="M 3272 -594 
L 3272 -1044 
L 3078 -1044 
Q 2300 -1044 2036 -812 
Q 1772 -581 1772 109 
L 1772 856 
Q 1772 1328 1603 1509 
Q 1434 1691 991 1691 
L 800 1691 
L 800 2138 
L 991 2138 
Q 1438 2138 1605 2317 
Q 1772 2497 1772 2963 
L 1772 3713 
Q 1772 4403 2036 4633 
Q 2300 4863 3078 4863 
L 3272 4863 
L 3272 4416 
L 3059 4416 
Q 2619 4416 2484 4278 
Q 2350 4141 2350 3700 
L 2350 2925 
Q 2350 2434 2208 2212 
Q 2066 1991 1722 1913 
Q 2069 1828 2209 1606 
Q 2350 1384 2350 897 
L 2350 122 
Q 2350 -319 2484 -456 
Q 2619 -594 3059 -594 
L 3272 -594 
z
" transform="scale(0.015625)"/>
      <path id="DejaVuSans-Oblique-43" d="M 4447 4306 
L 4319 3641 
Q 4019 3944 3683 4091 
Q 3347 4238 2956 4238 
Q 2422 4238 2017 3981 
Q 1613 3725 1319 3200 
Q 1131 2863 1032 2486 
Q 934 2109 934 1728 
Q 934 1091 1264 756 
Q 1594 422 2222 422 
Q 2656 422 3056 561 
Q 3456 700 3834 978 
L 3688 231 
Q 3316 72 2936 -9 
Q 2556 -91 2175 -91 
Q 1278 -91 773 396 
Q 269 884 269 1753 
Q 269 2309 461 2846 
Q 653 3384 1013 3828 
Q 1394 4300 1883 4525 
Q 2372 4750 3022 4750 
Q 3422 4750 3780 4639 
Q 4138 4528 4447 4306 
z
" transform="scale(0.015625)"/>
      <path id="DejaVuSans-7d" d="M 800 -594 
L 1019 -594 
Q 1456 -594 1589 -459 
Q 1722 -325 1722 122 
L 1722 897 
Q 1722 1384 1862 1606 
Q 2003 1828 2350 1913 
Q 2003 1991 1862 2212 
Q 1722 2434 1722 2925 
L 1722 3700 
Q 1722 4144 1589 4280 
Q 1456 4416 1019 4416 
L 800 4416 
L 800 4863 
L 997 4863 
Q 1775 4863 2036 4633 
Q 2297 4403 2297 3713 
L 2297 2963 
Q 2297 2497 2465 2317 
Q 2634 2138 3078 2138 
L 3272 2138 
L 3272 1691 
L 3078 1691 
Q 2634 1691 2465 1509 
Q 2297 1328 2297 856 
L 2297 109 
Q 2297 -581 2036 -812 
Q 1775 -1044 997 -1044 
L 800 -1044 
L 800 -594 
z
" transform="scale(0.015625)"/>
      <path id="ArialMT-50" d="M 494 0 
L 494 4581 
L 2222 4581 
Q 2678 4581 2919 4538 
Q 3256 4481 3484 4323 
Q 3713 4166 3852 3881 
Q 3991 3597 3991 3256 
Q 3991 2672 3619 2267 
Q 3247 1863 2275 1863 
L 1100 1863 
L 1100 0 
L 494 0 
z
M 1100 2403 
L 2284 2403 
Q 2872 2403 3119 2622 
Q 3366 2841 3366 3238 
Q 3366 3525 3220 3729 
Q 3075 3934 2838 4000 
Q 2684 4041 2272 4041 
L 1100 4041 
L 1100 2403 
z
" transform="scale(0.015625)"/>
      <path id="ArialMT-46" d="M 525 0 
L 525 4581 
L 3616 4581 
L 3616 4041 
L 1131 4041 
L 1131 2622 
L 3281 2622 
L 3281 2081 
L 1131 2081 
L 1131 0 
L 525 0 
z
" transform="scale(0.015625)"/>
     </defs>
     <use xlink:href="#DejaVuSans-Oblique-4e" transform="translate(16.235676 0.015625)"/>
     <use xlink:href="#DejaVuSans-2212" transform="translate(94.287109 0.015625)"/>
     <use xlink:href="#DejaVuSans-Oblique-4b" transform="translate(181.322917 0.015625)"/>
     <use xlink:href="#DejaVuSans-7b" transform="translate(246.899089 0.015625)"/>
     <use xlink:href="#DejaVuSans-Oblique-43" transform="translate(310.522136 0.015625)"/>
     <use xlink:href="#DejaVuSans-7d" transform="translate(380.346355 0.015625)"/>
     <use xlink:href="#ArialMT-20" transform="translate(460.205078 0.015625)"/>
     <use xlink:href="#ArialMT-50" transform="translate(487.988281 0.015625)"/>
     <use xlink:href="#ArialMT-44" transform="translate(554.6875 0.015625)"/>
     <use xlink:href="#ArialMT-46" transform="translate(626.904297 0.015625)"/>
    </g>
   </g>
   <g id="legend_1">
    <g id="patch_7">
     <path d="M 218.8 168.20625 
L 641 168.20625 
Q 643 168.20625 643 166.20625 
L 643 93.4 
Q 643 91.4 641 91.4 
L 218.8 91.4 
Q 216.8 91.4 216.8 93.4 
L 216.8 166.20625 
Q 216.8 168.20625 218.8 168.20625 
z
" style="fill: #ffffff; opacity: 0.8; stroke: #cccccc; stroke-width: 1.5; stroke-linejoin: miter"/>
    </g>
    <g id="line2d_68">
     <path d="M 220.8 99.551562 
L 230.8 99.551562 
L 240.8 99.551562 
" style="fill: none; stroke: #a4031f; stroke-width: 2; stroke-linecap: round"/>
    </g>
    <g id="text_16">
     <!-- norm1  $a=7.03e-03$  $b=6.40e-02$  $\lambda=16.31$       $\mu=-12.75$       -->
     <g style="fill: #262626" transform="translate(248.8 103.051562) scale(0.1 -0.1)">
      <defs>
       <path id="DejaVuSansMono-6e" d="M 3284 2169 
L 3284 0 
L 2706 0 
L 2706 2169 
Q 2706 2641 2540 2862 
Q 2375 3084 2022 3084 
Q 1619 3084 1401 2798 
Q 1184 2513 1184 1978 
L 1184 0 
L 609 0 
L 609 3500 
L 1184 3500 
L 1184 2975 
Q 1338 3275 1600 3429 
Q 1863 3584 2222 3584 
Q 2756 3584 3020 3232 
Q 3284 2881 3284 2169 
z
" transform="scale(0.015625)"/>
       <path id="DejaVuSansMono-6f" d="M 1925 3097 
Q 1488 3097 1263 2756 
Q 1038 2416 1038 1747 
Q 1038 1081 1263 739 
Q 1488 397 1925 397 
Q 2366 397 2591 739 
Q 2816 1081 2816 1747 
Q 2816 2416 2591 2756 
Q 2366 3097 1925 3097 
z
M 1925 3584 
Q 2653 3584 3039 3112 
Q 3425 2641 3425 1747 
Q 3425 850 3040 379 
Q 2656 -91 1925 -91 
Q 1197 -91 812 379 
Q 428 850 428 1747 
Q 428 2641 812 3112 
Q 1197 3584 1925 3584 
z
" transform="scale(0.015625)"/>
       <path id="DejaVuSansMono-72" d="M 3609 2778 
Q 3425 2922 3234 2987 
Q 3044 3053 2816 3053 
Q 2278 3053 1993 2715 
Q 1709 2378 1709 1741 
L 1709 0 
L 1131 0 
L 1131 3500 
L 1709 3500 
L 1709 2816 
Q 1853 3188 2151 3386 
Q 2450 3584 2859 3584 
Q 3072 3584 3256 3531 
Q 3441 3478 3609 3366 
L 3609 2778 
z
" transform="scale(0.015625)"/>
       <path id="DejaVuSansMono-6d" d="M 2113 3144 
Q 2219 3369 2383 3476 
Q 2547 3584 2778 3584 
Q 3200 3584 3373 3257 
Q 3547 2931 3547 2028 
L 3547 0 
L 3022 0 
L 3022 2003 
Q 3022 2744 2939 2923 
Q 2856 3103 2638 3103 
Q 2388 3103 2295 2911 
Q 2203 2719 2203 2003 
L 2203 0 
L 1678 0 
L 1678 2003 
Q 1678 2753 1589 2928 
Q 1500 3103 1269 3103 
Q 1041 3103 952 2911 
Q 863 2719 863 2003 
L 863 0 
L 341 0 
L 341 3500 
L 863 3500 
L 863 3200 
Q 966 3388 1120 3486 
Q 1275 3584 1472 3584 
Q 1709 3584 1867 3475 
Q 2025 3366 2113 3144 
z
" transform="scale(0.015625)"/>
       <path id="DejaVuSansMono-31" d="M 844 531 
L 1825 531 
L 1825 4097 
L 769 3859 
L 769 4434 
L 1819 4666 
L 2450 4666 
L 2450 531 
L 3419 531 
L 3419 0 
L 844 0 
L 844 531 
z
" transform="scale(0.015625)"/>
       <path id="DejaVuSansMono-20" transform="scale(0.015625)"/>
       <path id="DejaVuSans-Oblique-61" d="M 3438 1997 
L 3047 0 
L 2472 0 
L 2578 531 
Q 2325 219 2001 64 
Q 1678 -91 1281 -91 
Q 834 -91 548 182 
Q 263 456 263 884 
Q 263 1497 752 1853 
Q 1241 2209 2100 2209 
L 2900 2209 
L 2931 2363 
Q 2938 2388 2941 2417 
Q 2944 2447 2944 2509 
Q 2944 2788 2717 2942 
Q 2491 3097 2081 3097 
Q 1800 3097 1504 3025 
Q 1209 2953 897 2809 
L 997 3341 
Q 1322 3463 1633 3523 
Q 1944 3584 2234 3584 
Q 2853 3584 3176 3315 
Q 3500 3047 3500 2534 
Q 3500 2431 3484 2292 
Q 3469 2153 3438 1997 
z
M 2816 1759 
L 2241 1759 
Q 1534 1759 1195 1570 
Q 856 1381 856 984 
Q 856 709 1029 553 
Q 1203 397 1509 397 
Q 1978 397 2328 733 
Q 2678 1069 2791 1631 
L 2816 1759 
z
" transform="scale(0.015625)"/>
       <path id="DejaVuSans-3d" d="M 678 2906 
L 4684 2906 
L 4684 2381 
L 678 2381 
L 678 2906 
z
M 678 1631 
L 4684 1631 
L 4684 1100 
L 678 1100 
L 678 1631 
z
" transform="scale(0.015625)"/>
       <path id="DejaVuSans-37" d="M 525 4666 
L 3525 4666 
L 3525 4397 
L 1831 0 
L 1172 0 
L 2766 4134 
L 525 4134 
L 525 4666 
z
" transform="scale(0.015625)"/>
       <path id="DejaVuSans-2e" d="M 684 794 
L 1344 794 
L 1344 0 
L 684 0 
L 684 794 
z
" transform="scale(0.015625)"/>
       <path id="DejaVuSans-30" d="M 2034 4250 
Q 1547 4250 1301 3770 
Q 1056 3291 1056 2328 
Q 1056 1369 1301 889 
Q 1547 409 2034 409 
Q 2525 409 2770 889 
Q 3016 1369 3016 2328 
Q 3016 3291 2770 3770 
Q 2525 4250 2034 4250 
z
M 2034 4750 
Q 2819 4750 3233 4129 
Q 3647 3509 3647 2328 
Q 3647 1150 3233 529 
Q 2819 -91 2034 -91 
Q 1250 -91 836 529 
Q 422 1150 422 2328 
Q 422 3509 836 4129 
Q 1250 4750 2034 4750 
z
" transform="scale(0.015625)"/>
       <path id="DejaVuSans-33" d="M 2597 2516 
Q 3050 2419 3304 2112 
Q 3559 1806 3559 1356 
Q 3559 666 3084 287 
Q 2609 -91 1734 -91 
Q 1441 -91 1130 -33 
Q 819 25 488 141 
L 488 750 
Q 750 597 1062 519 
Q 1375 441 1716 441 
Q 2309 441 2620 675 
Q 2931 909 2931 1356 
Q 2931 1769 2642 2001 
Q 2353 2234 1838 2234 
L 1294 2234 
L 1294 2753 
L 1863 2753 
Q 2328 2753 2575 2939 
Q 2822 3125 2822 3475 
Q 2822 3834 2567 4026 
Q 2313 4219 1838 4219 
Q 1578 4219 1281 4162 
Q 984 4106 628 3988 
L 628 4550 
Q 988 4650 1302 4700 
Q 1616 4750 1894 4750 
Q 2613 4750 3031 4423 
Q 3450 4097 3450 3541 
Q 3450 3153 3228 2886 
Q 3006 2619 2597 2516 
z
" transform="scale(0.015625)"/>
       <path id="DejaVuSans-Oblique-65" d="M 3078 2063 
Q 3088 2113 3092 2166 
Q 3097 2219 3097 2272 
Q 3097 2653 2873 2875 
Q 2650 3097 2266 3097 
Q 1838 3097 1509 2826 
Q 1181 2556 1013 2059 
L 3078 2063 
z
M 3578 1613 
L 903 1613 
Q 884 1494 878 1425 
Q 872 1356 872 1306 
Q 872 872 1139 634 
Q 1406 397 1894 397 
Q 2269 397 2603 481 
Q 2938 566 3225 728 
L 3116 159 
Q 2806 34 2476 -28 
Q 2147 -91 1806 -91 
Q 1078 -91 686 257 
Q 294 606 294 1247 
Q 294 1794 489 2264 
Q 684 2734 1063 3103 
Q 1306 3334 1642 3459 
Q 1978 3584 2356 3584 
Q 2950 3584 3301 3228 
Q 3653 2872 3653 2272 
Q 3653 2128 3634 1964 
Q 3616 1800 3578 1613 
z
" transform="scale(0.015625)"/>
       <path id="DejaVuSans-Oblique-62" d="M 3169 2138 
Q 3169 2591 2961 2847 
Q 2753 3103 2388 3103 
Q 2122 3103 1889 2973 
Q 1656 2844 1484 2597 
Q 1303 2338 1198 1995 
Q 1094 1653 1094 1313 
Q 1094 881 1298 636 
Q 1503 391 1863 391 
Q 2134 391 2365 517 
Q 2597 644 2772 891 
Q 2950 1147 3059 1487 
Q 3169 1828 3169 2138 
z
M 1381 2969 
Q 1594 3256 1914 3420 
Q 2234 3584 2584 3584 
Q 3122 3584 3439 3221 
Q 3756 2859 3756 2241 
Q 3756 1734 3570 1259 
Q 3384 784 3041 416 
Q 2816 172 2522 40 
Q 2228 -91 1906 -91 
Q 1566 -91 1316 65 
Q 1066 222 909 531 
L 806 0 
L 231 0 
L 1178 4863 
L 1753 4863 
L 1381 2969 
z
" transform="scale(0.015625)"/>
       <path id="DejaVuSans-36" d="M 2113 2584 
Q 1688 2584 1439 2293 
Q 1191 2003 1191 1497 
Q 1191 994 1439 701 
Q 1688 409 2113 409 
Q 2538 409 2786 701 
Q 3034 994 3034 1497 
Q 3034 2003 2786 2293 
Q 2538 2584 2113 2584 
z
M 3366 4563 
L 3366 3988 
Q 3128 4100 2886 4159 
Q 2644 4219 2406 4219 
Q 1781 4219 1451 3797 
Q 1122 3375 1075 2522 
Q 1259 2794 1537 2939 
Q 1816 3084 2150 3084 
Q 2853 3084 3261 2657 
Q 3669 2231 3669 1497 
Q 3669 778 3244 343 
Q 2819 -91 2113 -91 
Q 1303 -91 875 529 
Q 447 1150 447 2328 
Q 447 3434 972 4092 
Q 1497 4750 2381 4750 
Q 2619 4750 2861 4703 
Q 3103 4656 3366 4563 
z
" transform="scale(0.015625)"/>
       <path id="DejaVuSans-34" d="M 2419 4116 
L 825 1625 
L 2419 1625 
L 2419 4116 
z
M 2253 4666 
L 3047 4666 
L 3047 1625 
L 3713 1625 
L 3713 1100 
L 3047 1100 
L 3047 0 
L 2419 0 
L 2419 1100 
L 313 1100 
L 313 1709 
L 2253 4666 
z
" transform="scale(0.015625)"/>
       <path id="DejaVuSans-32" d="M 1228 531 
L 3431 531 
L 3431 0 
L 469 0 
L 469 531 
Q 828 903 1448 1529 
Q 2069 2156 2228 2338 
Q 2531 2678 2651 2914 
Q 2772 3150 2772 3378 
Q 2772 3750 2511 3984 
Q 2250 4219 1831 4219 
Q 1534 4219 1204 4116 
Q 875 4013 500 3803 
L 500 4441 
Q 881 4594 1212 4672 
Q 1544 4750 1819 4750 
Q 2544 4750 2975 4387 
Q 3406 4025 3406 3419 
Q 3406 3131 3298 2873 
Q 3191 2616 2906 2266 
Q 2828 2175 2409 1742 
Q 1991 1309 1228 531 
z
" transform="scale(0.015625)"/>
       <path id="DejaVuSans-Oblique-3bb" d="M 2350 4316 
L 3125 0 
L 2516 0 
L 2038 2588 
L 328 0 
L -281 0 
L 1903 3356 
L 1794 3975 
Q 1725 4369 1391 4369 
L 1091 4369 
L 1184 4863 
L 1550 4856 
Q 2253 4847 2350 4316 
z
" transform="scale(0.015625)"/>
       <path id="DejaVuSans-31" d="M 794 531 
L 1825 531 
L 1825 4091 
L 703 3866 
L 703 4441 
L 1819 4666 
L 2450 4666 
L 2450 531 
L 3481 531 
L 3481 0 
L 794 0 
L 794 531 
z
" transform="scale(0.015625)"/>
       <path id="DejaVuSans-Oblique-3bc" d="M -84 -1331 
L 856 3500 
L 1434 3500 
L 1009 1322 
Q 997 1256 987 1175 
Q 978 1094 978 1013 
Q 978 722 1161 565 
Q 1344 409 1684 409 
Q 2147 409 2431 671 
Q 2716 934 2816 1459 
L 3213 3500 
L 3788 3500 
L 3266 809 
Q 3253 750 3248 706 
Q 3244 663 3244 628 
Q 3244 531 3283 486 
Q 3322 441 3406 441 
Q 3438 441 3492 456 
Q 3547 472 3647 513 
L 3559 50 
Q 3422 -19 3297 -55 
Q 3172 -91 3053 -91 
Q 2847 -91 2730 40 
Q 2613 172 2613 403 
Q 2438 153 2195 31 
Q 1953 -91 1625 -91 
Q 1334 -91 1117 43 
Q 900 178 831 397 
L 494 -1331 
L -84 -1331 
z
" transform="scale(0.015625)"/>
       <path id="DejaVuSans-35" d="M 691 4666 
L 3169 4666 
L 3169 4134 
L 1269 4134 
L 1269 2991 
Q 1406 3038 1543 3061 
Q 1681 3084 1819 3084 
Q 2600 3084 3056 2656 
Q 3513 2228 3513 1497 
Q 3513 744 3044 326 
Q 2575 -91 1722 -91 
Q 1428 -91 1123 -41 
Q 819 9 494 109 
L 494 744 
Q 775 591 1075 516 
Q 1375 441 1709 441 
Q 2250 441 2565 725 
Q 2881 1009 2881 1497 
Q 2881 1984 2565 2268 
Q 2250 2553 1709 2553 
Q 1456 2553 1204 2497 
Q 953 2441 691 2322 
L 691 4666 
z
" transform="scale(0.015625)"/>
      </defs>
      <use xlink:href="#DejaVuSansMono-6e" transform="translate(0 0.015625)"/>
      <use xlink:href="#DejaVuSansMono-6f" transform="translate(60.205078 0.015625)"/>
      <use xlink:href="#DejaVuSansMono-72" transform="translate(120.410156 0.015625)"/>
      <use xlink:href="#DejaVuSansMono-6d" transform="translate(180.615234 0.015625)"/>
      <use xlink:href="#DejaVuSansMono-31" transform="translate(240.820312 0.015625)"/>
      <use xlink:href="#DejaVuSansMono-20" transform="translate(301.025391 0.015625)"/>
      <use xlink:href="#DejaVuSansMono-20" transform="translate(361.230469 0.015625)"/>
      <use xlink:href="#DejaVuSans-Oblique-61" transform="translate(421.435547 0.015625)"/>
      <use xlink:href="#DejaVuSans-3d" transform="translate(502.197266 0.015625)"/>
      <use xlink:href="#DejaVuSans-37" transform="translate(605.46875 0.015625)"/>
      <use xlink:href="#DejaVuSans-2e" transform="translate(669.091797 0.015625)"/>
      <use xlink:href="#DejaVuSans-30" transform="translate(700.878906 0.015625)"/>
      <use xlink:href="#DejaVuSans-33" transform="translate(764.501953 0.015625)"/>
      <use xlink:href="#DejaVuSans-Oblique-65" transform="translate(828.125 0.015625)"/>
      <use xlink:href="#DejaVuSans-2212" transform="translate(909.130859 0.015625)"/>
      <use xlink:href="#DejaVuSans-30" transform="translate(1012.402344 0.015625)"/>
      <use xlink:href="#DejaVuSans-33" transform="translate(1076.025391 0.015625)"/>
      <use xlink:href="#DejaVuSansMono-20" transform="translate(1139.648438 0.015625)"/>
      <use xlink:href="#DejaVuSansMono-20" transform="translate(1199.853516 0.015625)"/>
      <use xlink:href="#DejaVuSans-Oblique-62" transform="translate(1260.058594 0.015625)"/>
      <use xlink:href="#DejaVuSans-3d" transform="translate(1343.017578 0.015625)"/>
      <use xlink:href="#DejaVuSans-36" transform="translate(1446.289062 0.015625)"/>
      <use xlink:href="#DejaVuSans-2e" transform="translate(1509.912109 0.015625)"/>
      <use xlink:href="#DejaVuSans-34" transform="translate(1541.699219 0.015625)"/>
      <use xlink:href="#DejaVuSans-30" transform="translate(1605.322266 0.015625)"/>
      <use xlink:href="#DejaVuSans-Oblique-65" transform="translate(1668.945312 0.015625)"/>
      <use xlink:href="#DejaVuSans-2212" transform="translate(1749.951172 0.015625)"/>
      <use xlink:href="#DejaVuSans-30" transform="translate(1853.222656 0.015625)"/>
      <use xlink:href="#DejaVuSans-32" transform="translate(1916.845703 0.015625)"/>
      <use xlink:href="#DejaVuSansMono-20" transform="translate(1980.46875 0.015625)"/>
      <use xlink:href="#DejaVuSansMono-20" transform="translate(2040.673828 0.015625)"/>
      <use xlink:href="#DejaVuSans-Oblique-3bb" transform="translate(2100.878906 0.015625)"/>
      <use xlink:href="#DejaVuSans-3d" transform="translate(2179.541016 0.015625)"/>
      <use xlink:href="#DejaVuSans-31" transform="translate(2282.8125 0.015625)"/>
      <use xlink:href="#DejaVuSans-36" transform="translate(2346.435547 0.015625)"/>
      <use xlink:href="#DejaVuSans-2e" transform="translate(2410.058594 0.015625)"/>
      <use xlink:href="#DejaVuSans-33" transform="translate(2441.845703 0.015625)"/>
      <use xlink:href="#DejaVuSans-31" transform="translate(2505.46875 0.015625)"/>
      <use xlink:href="#DejaVuSansMono-20" transform="translate(2569.091797 0.015625)"/>
      <use xlink:href="#DejaVuSansMono-20" transform="translate(2629.296875 0.015625)"/>
      <use xlink:href="#DejaVuSansMono-20" transform="translate(2689.501953 0.015625)"/>
      <use xlink:href="#DejaVuSansMono-20" transform="translate(2749.707031 0.015625)"/>
      <use xlink:href="#DejaVuSansMono-20" transform="translate(2809.912109 0.015625)"/>
      <use xlink:href="#DejaVuSansMono-20" transform="translate(2870.117188 0.015625)"/>
      <use xlink:href="#DejaVuSansMono-20" transform="translate(2930.322266 0.015625)"/>
      <use xlink:href="#DejaVuSans-Oblique-3bc" transform="translate(2990.527344 0.015625)"/>
      <use xlink:href="#DejaVuSans-3d" transform="translate(3073.632812 0.015625)"/>
      <use xlink:href="#DejaVuSans-2212" transform="translate(3176.904297 0.015625)"/>
      <use xlink:href="#DejaVuSans-31" transform="translate(3260.693359 0.015625)"/>
      <use xlink:href="#DejaVuSans-32" transform="translate(3324.316406 0.015625)"/>
      <use xlink:href="#DejaVuSans-2e" transform="translate(3387.939453 0.015625)"/>
      <use xlink:href="#DejaVuSans-37" transform="translate(3411.976562 0.015625)"/>
      <use xlink:href="#DejaVuSans-35" transform="translate(3475.599609 0.015625)"/>
      <use xlink:href="#DejaVuSansMono-20" transform="translate(3539.222656 0.015625)"/>
      <use xlink:href="#DejaVuSansMono-20" transform="translate(3599.427734 0.015625)"/>
      <use xlink:href="#DejaVuSansMono-20" transform="translate(3659.632812 0.015625)"/>
      <use xlink:href="#DejaVuSansMono-20" transform="translate(3719.837891 0.015625)"/>
      <use xlink:href="#DejaVuSansMono-20" transform="translate(3780.042969 0.015625)"/>
      <use xlink:href="#DejaVuSansMono-20" transform="translate(3840.248047 0.015625)"/>
     </g>
    </g>
    <g id="line2d_69">
     <path d="M 220.8 114.303125 
L 230.8 114.303125 
L 240.8 114.303125 
" style="fill: none; stroke: #dddde3; stroke-width: 2; stroke-linecap: round"/>
    </g>
    <g id="text_17">
     <!-- norm2  $a=8.99e-03$  $b=4.32e-02$  $\lambda=6.43$        $\mu=-9.04$        -->
     <g style="fill: #262626" transform="translate(248.8 117.803125) scale(0.1 -0.1)">
      <defs>
       <path id="DejaVuSansMono-32" d="M 1166 531 
L 3309 531 
L 3309 0 
L 475 0 
L 475 531 
Q 1059 1147 1496 1619 
Q 1934 2091 2100 2284 
Q 2413 2666 2522 2902 
Q 2631 3138 2631 3384 
Q 2631 3775 2401 3997 
Q 2172 4219 1772 4219 
Q 1488 4219 1175 4116 
Q 863 4013 513 3803 
L 513 4441 
Q 834 4594 1145 4672 
Q 1456 4750 1759 4750 
Q 2444 4750 2861 4386 
Q 3278 4022 3278 3431 
Q 3278 3131 3139 2831 
Q 3000 2531 2688 2169 
Q 2513 1966 2180 1606 
Q 1847 1247 1166 531 
z
" transform="scale(0.015625)"/>
       <path id="DejaVuSans-38" d="M 2034 2216 
Q 1584 2216 1326 1975 
Q 1069 1734 1069 1313 
Q 1069 891 1326 650 
Q 1584 409 2034 409 
Q 2484 409 2743 651 
Q 3003 894 3003 1313 
Q 3003 1734 2745 1975 
Q 2488 2216 2034 2216 
z
M 1403 2484 
Q 997 2584 770 2862 
Q 544 3141 544 3541 
Q 544 4100 942 4425 
Q 1341 4750 2034 4750 
Q 2731 4750 3128 4425 
Q 3525 4100 3525 3541 
Q 3525 3141 3298 2862 
Q 3072 2584 2669 2484 
Q 3125 2378 3379 2068 
Q 3634 1759 3634 1313 
Q 3634 634 3220 271 
Q 2806 -91 2034 -91 
Q 1263 -91 848 271 
Q 434 634 434 1313 
Q 434 1759 690 2068 
Q 947 2378 1403 2484 
z
M 1172 3481 
Q 1172 3119 1398 2916 
Q 1625 2713 2034 2713 
Q 2441 2713 2670 2916 
Q 2900 3119 2900 3481 
Q 2900 3844 2670 4047 
Q 2441 4250 2034 4250 
Q 1625 4250 1398 4047 
Q 1172 3844 1172 3481 
z
" transform="scale(0.015625)"/>
       <path id="DejaVuSans-39" d="M 703 97 
L 703 672 
Q 941 559 1184 500 
Q 1428 441 1663 441 
Q 2288 441 2617 861 
Q 2947 1281 2994 2138 
Q 2813 1869 2534 1725 
Q 2256 1581 1919 1581 
Q 1219 1581 811 2004 
Q 403 2428 403 3163 
Q 403 3881 828 4315 
Q 1253 4750 1959 4750 
Q 2769 4750 3195 4129 
Q 3622 3509 3622 2328 
Q 3622 1225 3098 567 
Q 2575 -91 1691 -91 
Q 1453 -91 1209 -44 
Q 966 3 703 97 
z
M 1959 2075 
Q 2384 2075 2632 2365 
Q 2881 2656 2881 3163 
Q 2881 3666 2632 3958 
Q 2384 4250 1959 4250 
Q 1534 4250 1286 3958 
Q 1038 3666 1038 3163 
Q 1038 2656 1286 2365 
Q 1534 2075 1959 2075 
z
" transform="scale(0.015625)"/>
      </defs>
      <use xlink:href="#DejaVuSansMono-6e" transform="translate(0 0.015625)"/>
      <use xlink:href="#DejaVuSansMono-6f" transform="translate(60.205078 0.015625)"/>
      <use xlink:href="#DejaVuSansMono-72" transform="translate(120.410156 0.015625)"/>
      <use xlink:href="#DejaVuSansMono-6d" transform="translate(180.615234 0.015625)"/>
      <use xlink:href="#DejaVuSansMono-32" transform="translate(240.820312 0.015625)"/>
      <use xlink:href="#DejaVuSansMono-20" transform="translate(301.025391 0.015625)"/>
      <use xlink:href="#DejaVuSansMono-20" transform="translate(361.230469 0.015625)"/>
      <use xlink:href="#DejaVuSans-Oblique-61" transform="translate(421.435547 0.015625)"/>
      <use xlink:href="#DejaVuSans-3d" transform="translate(502.197266 0.015625)"/>
      <use xlink:href="#DejaVuSans-38" transform="translate(605.46875 0.015625)"/>
      <use xlink:href="#DejaVuSans-2e" transform="translate(669.091797 0.015625)"/>
      <use xlink:href="#DejaVuSans-39" transform="translate(700.878906 0.015625)"/>
      <use xlink:href="#DejaVuSans-39" transform="translate(764.501953 0.015625)"/>
      <use xlink:href="#DejaVuSans-Oblique-65" transform="translate(828.125 0.015625)"/>
      <use xlink:href="#DejaVuSans-2212" transform="translate(909.130859 0.015625)"/>
      <use xlink:href="#DejaVuSans-30" transform="translate(1012.402344 0.015625)"/>
      <use xlink:href="#DejaVuSans-33" transform="translate(1076.025391 0.015625)"/>
      <use xlink:href="#DejaVuSansMono-20" transform="translate(1139.648438 0.015625)"/>
      <use xlink:href="#DejaVuSansMono-20" transform="translate(1199.853516 0.015625)"/>
      <use xlink:href="#DejaVuSans-Oblique-62" transform="translate(1260.058594 0.015625)"/>
      <use xlink:href="#DejaVuSans-3d" transform="translate(1343.017578 0.015625)"/>
      <use xlink:href="#DejaVuSans-34" transform="translate(1446.289062 0.015625)"/>
      <use xlink:href="#DejaVuSans-2e" transform="translate(1509.912109 0.015625)"/>
      <use xlink:href="#DejaVuSans-33" transform="translate(1541.699219 0.015625)"/>
      <use xlink:href="#DejaVuSans-32" transform="translate(1605.322266 0.015625)"/>
      <use xlink:href="#DejaVuSans-Oblique-65" transform="translate(1668.945312 0.015625)"/>
      <use xlink:href="#DejaVuSans-2212" transform="translate(1749.951172 0.015625)"/>
      <use xlink:href="#DejaVuSans-30" transform="translate(1853.222656 0.015625)"/>
      <use xlink:href="#DejaVuSans-32" transform="translate(1916.845703 0.015625)"/>
      <use xlink:href="#DejaVuSansMono-20" transform="translate(1980.46875 0.015625)"/>
      <use xlink:href="#DejaVuSansMono-20" transform="translate(2040.673828 0.015625)"/>
      <use xlink:href="#DejaVuSans-Oblique-3bb" transform="translate(2100.878906 0.015625)"/>
      <use xlink:href="#DejaVuSans-3d" transform="translate(2179.541016 0.015625)"/>
      <use xlink:href="#DejaVuSans-36" transform="translate(2282.8125 0.015625)"/>
      <use xlink:href="#DejaVuSans-2e" transform="translate(2346.435547 0.015625)"/>
      <use xlink:href="#DejaVuSans-34" transform="translate(2378.222656 0.015625)"/>
      <use xlink:href="#DejaVuSans-33" transform="translate(2441.845703 0.015625)"/>
      <use xlink:href="#DejaVuSansMono-20" transform="translate(2505.46875 0.015625)"/>
      <use xlink:href="#DejaVuSansMono-20" transform="translate(2565.673828 0.015625)"/>
      <use xlink:href="#DejaVuSansMono-20" transform="translate(2625.878906 0.015625)"/>
      <use xlink:href="#DejaVuSansMono-20" transform="translate(2686.083984 0.015625)"/>
      <use xlink:href="#DejaVuSansMono-20" transform="translate(2746.289062 0.015625)"/>
      <use xlink:href="#DejaVuSansMono-20" transform="translate(2806.494141 0.015625)"/>
      <use xlink:href="#DejaVuSansMono-20" transform="translate(2866.699219 0.015625)"/>
      <use xlink:href="#DejaVuSansMono-20" transform="translate(2926.904297 0.015625)"/>
      <use xlink:href="#DejaVuSans-Oblique-3bc" transform="translate(2987.109375 0.015625)"/>
      <use xlink:href="#DejaVuSans-3d" transform="translate(3070.214844 0.015625)"/>
      <use xlink:href="#DejaVuSans-2212" transform="translate(3173.486328 0.015625)"/>
      <use xlink:href="#DejaVuSans-39" transform="translate(3257.275391 0.015625)"/>
      <use xlink:href="#DejaVuSans-2e" transform="translate(3320.898438 0.015625)"/>
      <use xlink:href="#DejaVuSans-30" transform="translate(3352.685547 0.015625)"/>
      <use xlink:href="#DejaVuSans-34" transform="translate(3416.308594 0.015625)"/>
      <use xlink:href="#DejaVuSansMono-20" transform="translate(3479.931641 0.015625)"/>
      <use xlink:href="#DejaVuSansMono-20" transform="translate(3540.136719 0.015625)"/>
      <use xlink:href="#DejaVuSansMono-20" transform="translate(3600.341797 0.015625)"/>
      <use xlink:href="#DejaVuSansMono-20" transform="translate(3660.546875 0.015625)"/>
      <use xlink:href="#DejaVuSansMono-20" transform="translate(3720.751953 0.015625)"/>
      <use xlink:href="#DejaVuSansMono-20" transform="translate(3780.957031 0.015625)"/>
      <use xlink:href="#DejaVuSansMono-20" transform="translate(3841.162109 0.015625)"/>
     </g>
    </g>
    <g id="line2d_70">
     <path d="M 220.8 129.054687 
L 230.8 129.054687 
L 240.8 129.054687 
" style="fill: none; stroke: #88bf9b; stroke-width: 2; stroke-linecap: round"/>
    </g>
    <g id="text_18">
     <!-- rskew  $a=0.59$       $b=0.56$       $\lambda=1.82$        $\mu=-1.42$        -->
     <g style="fill: #262626" transform="translate(248.8 132.554687) scale(0.1 -0.1)">
      <defs>
       <path id="DejaVuSansMono-73" d="M 3041 3378 
L 3041 2816 
Q 2794 2959 2544 3031 
Q 2294 3103 2034 3103 
Q 1644 3103 1451 2976 
Q 1259 2850 1259 2591 
Q 1259 2356 1403 2240 
Q 1547 2125 2119 2016 
L 2350 1972 
Q 2778 1891 2998 1647 
Q 3219 1403 3219 1013 
Q 3219 494 2850 201 
Q 2481 -91 1825 -91 
Q 1566 -91 1281 -36 
Q 997 19 666 128 
L 666 722 
Q 988 556 1281 473 
Q 1575 391 1838 391 
Q 2219 391 2428 545 
Q 2638 700 2638 978 
Q 2638 1378 1872 1531 
L 1847 1538 
L 1631 1581 
Q 1134 1678 906 1908 
Q 678 2138 678 2534 
Q 678 3038 1018 3311 
Q 1359 3584 1991 3584 
Q 2272 3584 2531 3532 
Q 2791 3481 3041 3378 
z
" transform="scale(0.015625)"/>
       <path id="DejaVuSansMono-6b" d="M 738 4863 
L 1331 4863 
L 1331 2047 
L 2841 3500 
L 3541 3500 
L 2163 2181 
L 3756 0 
L 3053 0 
L 1759 1806 
L 1331 1403 
L 1331 0 
L 738 0 
L 738 4863 
z
" transform="scale(0.015625)"/>
       <path id="DejaVuSansMono-65" d="M 3475 1894 
L 3475 1613 
L 984 1613 
L 984 1594 
Q 984 1022 1282 709 
Q 1581 397 2125 397 
Q 2400 397 2700 484 
Q 3000 572 3341 750 
L 3341 178 
Q 3013 44 2708 -23 
Q 2403 -91 2119 -91 
Q 1303 -91 843 398 
Q 384 888 384 1747 
Q 384 2584 834 3084 
Q 1284 3584 2034 3584 
Q 2703 3584 3089 3131 
Q 3475 2678 3475 1894 
z
M 2900 2063 
Q 2888 2569 2661 2833 
Q 2434 3097 2009 3097 
Q 1594 3097 1325 2822 
Q 1056 2547 1006 2059 
L 2900 2063 
z
" transform="scale(0.015625)"/>
       <path id="DejaVuSansMono-77" d="M 0 3500 
L 569 3500 
L 1178 672 
L 1678 2478 
L 2169 2478 
L 2675 672 
L 3284 3500 
L 3853 3500 
L 3034 0 
L 2484 0 
L 1925 1919 
L 1369 0 
L 819 0 
L 0 3500 
z
" transform="scale(0.015625)"/>
      </defs>
      <use xlink:href="#DejaVuSansMono-72" transform="translate(0 0.015625)"/>
      <use xlink:href="#DejaVuSansMono-73" transform="translate(60.205078 0.015625)"/>
      <use xlink:href="#DejaVuSansMono-6b" transform="translate(120.410156 0.015625)"/>
      <use xlink:href="#DejaVuSansMono-65" transform="translate(180.615234 0.015625)"/>
      <use xlink:href="#DejaVuSansMono-77" transform="translate(240.820312 0.015625)"/>
      <use xlink:href="#DejaVuSansMono-20" transform="translate(301.025391 0.015625)"/>
      <use xlink:href="#DejaVuSansMono-20" transform="translate(361.230469 0.015625)"/>
      <use xlink:href="#DejaVuSans-Oblique-61" transform="translate(421.435547 0.015625)"/>
      <use xlink:href="#DejaVuSans-3d" transform="translate(502.197266 0.015625)"/>
      <use xlink:href="#DejaVuSans-30" transform="translate(605.46875 0.015625)"/>
      <use xlink:href="#DejaVuSans-2e" transform="translate(669.091797 0.015625)"/>
      <use xlink:href="#DejaVuSans-35" transform="translate(700.878906 0.015625)"/>
      <use xlink:href="#DejaVuSans-39" transform="translate(759.001953 0.015625)"/>
      <use xlink:href="#DejaVuSansMono-20" transform="translate(822.625 0.015625)"/>
      <use xlink:href="#DejaVuSansMono-20" transform="translate(882.830078 0.015625)"/>
      <use xlink:href="#DejaVuSansMono-20" transform="translate(943.035156 0.015625)"/>
      <use xlink:href="#DejaVuSansMono-20" transform="translate(1003.240234 0.015625)"/>
      <use xlink:href="#DejaVuSansMono-20" transform="translate(1063.445312 0.015625)"/>
      <use xlink:href="#DejaVuSansMono-20" transform="translate(1123.650391 0.015625)"/>
      <use xlink:href="#DejaVuSansMono-20" transform="translate(1183.855469 0.015625)"/>
      <use xlink:href="#DejaVuSans-Oblique-62" transform="translate(1244.060547 0.015625)"/>
      <use xlink:href="#DejaVuSans-3d" transform="translate(1327.019531 0.015625)"/>
      <use xlink:href="#DejaVuSans-30" transform="translate(1430.291016 0.015625)"/>
      <use xlink:href="#DejaVuSans-2e" transform="translate(1493.914062 0.015625)"/>
      <use xlink:href="#DejaVuSans-35" transform="translate(1525.701172 0.015625)"/>
      <use xlink:href="#DejaVuSans-36" transform="translate(1589.324219 0.015625)"/>
      <use xlink:href="#DejaVuSansMono-20" transform="translate(1652.947266 0.015625)"/>
      <use xlink:href="#DejaVuSansMono-20" transform="translate(1713.152344 0.015625)"/>
      <use xlink:href="#DejaVuSansMono-20" transform="translate(1773.357422 0.015625)"/>
      <use xlink:href="#DejaVuSansMono-20" transform="translate(1833.5625 0.015625)"/>
      <use xlink:href="#DejaVuSansMono-20" transform="translate(1893.767578 0.015625)"/>
      <use xlink:href="#DejaVuSansMono-20" transform="translate(1953.972656 0.015625)"/>
      <use xlink:href="#DejaVuSansMono-20" transform="translate(2014.177734 0.015625)"/>
      <use xlink:href="#DejaVuSans-Oblique-3bb" transform="translate(2074.382812 0.015625)"/>
      <use xlink:href="#DejaVuSans-3d" transform="translate(2153.044922 0.015625)"/>
      <use xlink:href="#DejaVuSans-31" transform="translate(2256.316406 0.015625)"/>
      <use xlink:href="#DejaVuSans-2e" transform="translate(2319.939453 0.015625)"/>
      <use xlink:href="#DejaVuSans-38" transform="translate(2349.101562 0.015625)"/>
      <use xlink:href="#DejaVuSans-32" transform="translate(2412.724609 0.015625)"/>
      <use xlink:href="#DejaVuSansMono-20" transform="translate(2476.347656 0.015625)"/>
      <use xlink:href="#DejaVuSansMono-20" transform="translate(2536.552734 0.015625)"/>
      <use xlink:href="#DejaVuSansMono-20" transform="translate(2596.757812 0.015625)"/>
      <use xlink:href="#DejaVuSansMono-20" transform="translate(2656.962891 0.015625)"/>
      <use xlink:href="#DejaVuSansMono-20" transform="translate(2717.167969 0.015625)"/>
      <use xlink:href="#DejaVuSansMono-20" transform="translate(2777.373047 0.015625)"/>
      <use xlink:href="#DejaVuSansMono-20" transform="translate(2837.578125 0.015625)"/>
      <use xlink:href="#DejaVuSansMono-20" transform="translate(2897.783203 0.015625)"/>
      <use xlink:href="#DejaVuSans-Oblique-3bc" transform="translate(2957.988281 0.015625)"/>
      <use xlink:href="#DejaVuSans-3d" transform="translate(3041.09375 0.015625)"/>
      <use xlink:href="#DejaVuSans-2212" transform="translate(3144.365234 0.015625)"/>
      <use xlink:href="#DejaVuSans-31" transform="translate(3228.154297 0.015625)"/>
      <use xlink:href="#DejaVuSans-2e" transform="translate(3291.777344 0.015625)"/>
      <use xlink:href="#DejaVuSans-34" transform="translate(3323.564453 0.015625)"/>
      <use xlink:href="#DejaVuSans-32" transform="translate(3387.1875 0.015625)"/>
      <use xlink:href="#DejaVuSansMono-20" transform="translate(3450.810547 0.015625)"/>
      <use xlink:href="#DejaVuSansMono-20" transform="translate(3511.015625 0.015625)"/>
      <use xlink:href="#DejaVuSansMono-20" transform="translate(3571.220703 0.015625)"/>
      <use xlink:href="#DejaVuSansMono-20" transform="translate(3631.425781 0.015625)"/>
      <use xlink:href="#DejaVuSansMono-20" transform="translate(3691.630859 0.015625)"/>
      <use xlink:href="#DejaVuSansMono-20" transform="translate(3751.835938 0.015625)"/>
      <use xlink:href="#DejaVuSansMono-20" transform="translate(3812.041016 0.015625)"/>
     </g>
    </g>
    <g id="line2d_71">
     <path d="M 220.8 143.854687 
L 230.8 143.854687 
L 240.8 143.854687 
" style="fill: none; stroke: #3c91e6; stroke-width: 2; stroke-linecap: round"/>
    </g>
    <g id="text_19">
     <!-- lskew  $a=4.11e-02$  $b=0.34$       $\lambda=2.84$        $\mu=3.35$         -->
     <g style="fill: #262626" transform="translate(248.8 147.354687) scale(0.1 -0.1)">
      <defs>
       <path id="DejaVuSansMono-6c" d="M 1997 1269 
Q 1997 881 2139 684 
Q 2281 488 2559 488 
L 3231 488 
L 3231 0 
L 2503 0 
Q 1988 0 1705 331 
Q 1422 663 1422 1269 
L 1422 4447 
L 500 4447 
L 500 4897 
L 1997 4897 
L 1997 1269 
z
" transform="scale(0.015625)"/>
      </defs>
      <use xlink:href="#DejaVuSansMono-6c" transform="translate(0 0.484375)"/>
      <use xlink:href="#DejaVuSansMono-73" transform="translate(60.205078 0.484375)"/>
      <use xlink:href="#DejaVuSansMono-6b" transform="translate(120.410156 0.484375)"/>
      <use xlink:href="#DejaVuSansMono-65" transform="translate(180.615234 0.484375)"/>
      <use xlink:href="#DejaVuSansMono-77" transform="translate(240.820312 0.484375)"/>
      <use xlink:href="#DejaVuSansMono-20" transform="translate(301.025391 0.484375)"/>
      <use xlink:href="#DejaVuSansMono-20" transform="translate(361.230469 0.484375)"/>
      <use xlink:href="#DejaVuSans-Oblique-61" transform="translate(421.435547 0.484375)"/>
      <use xlink:href="#DejaVuSans-3d" transform="translate(502.197266 0.484375)"/>
      <use xlink:href="#DejaVuSans-34" transform="translate(605.46875 0.484375)"/>
      <use xlink:href="#DejaVuSans-2e" transform="translate(669.091797 0.484375)"/>
      <use xlink:href="#DejaVuSans-31" transform="translate(700.878906 0.484375)"/>
      <use xlink:href="#DejaVuSans-31" transform="translate(764.501953 0.484375)"/>
      <use xlink:href="#DejaVuSans-Oblique-65" transform="translate(828.125 0.484375)"/>
      <use xlink:href="#DejaVuSans-2212" transform="translate(909.130859 0.484375)"/>
      <use xlink:href="#DejaVuSans-30" transform="translate(1012.402344 0.484375)"/>
      <use xlink:href="#DejaVuSans-32" transform="translate(1076.025391 0.484375)"/>
      <use xlink:href="#DejaVuSansMono-20" transform="translate(1139.648438 0.484375)"/>
      <use xlink:href="#DejaVuSansMono-20" transform="translate(1199.853516 0.484375)"/>
      <use xlink:href="#DejaVuSans-Oblique-62" transform="translate(1260.058594 0.484375)"/>
      <use xlink:href="#DejaVuSans-3d" transform="translate(1343.017578 0.484375)"/>
      <use xlink:href="#DejaVuSans-30" transform="translate(1446.289062 0.484375)"/>
      <use xlink:href="#DejaVuSans-2e" transform="translate(1509.912109 0.484375)"/>
      <use xlink:href="#DejaVuSans-33" transform="translate(1541.699219 0.484375)"/>
      <use xlink:href="#DejaVuSans-34" transform="translate(1605.322266 0.484375)"/>
      <use xlink:href="#DejaVuSansMono-20" transform="translate(1668.945312 0.484375)"/>
      <use xlink:href="#DejaVuSansMono-20" transform="translate(1729.150391 0.484375)"/>
      <use xlink:href="#DejaVuSansMono-20" transform="translate(1789.355469 0.484375)"/>
      <use xlink:href="#DejaVuSansMono-20" transform="translate(1849.560547 0.484375)"/>
      <use xlink:href="#DejaVuSansMono-20" transform="translate(1909.765625 0.484375)"/>
      <use xlink:href="#DejaVuSansMono-20" transform="translate(1969.970703 0.484375)"/>
      <use xlink:href="#DejaVuSansMono-20" transform="translate(2030.175781 0.484375)"/>
      <use xlink:href="#DejaVuSans-Oblique-3bb" transform="translate(2090.380859 0.484375)"/>
      <use xlink:href="#DejaVuSans-3d" transform="translate(2169.042969 0.484375)"/>
      <use xlink:href="#DejaVuSans-32" transform="translate(2272.314453 0.484375)"/>
      <use xlink:href="#DejaVuSans-2e" transform="translate(2335.9375 0.484375)"/>
      <use xlink:href="#DejaVuSans-38" transform="translate(2365.099609 0.484375)"/>
      <use xlink:href="#DejaVuSans-34" transform="translate(2428.722656 0.484375)"/>
      <use xlink:href="#DejaVuSansMono-20" transform="translate(2492.345703 0.484375)"/>
      <use xlink:href="#DejaVuSansMono-20" transform="translate(2552.550781 0.484375)"/>
      <use xlink:href="#DejaVuSansMono-20" transform="translate(2612.755859 0.484375)"/>
      <use xlink:href="#DejaVuSansMono-20" transform="translate(2672.960938 0.484375)"/>
      <use xlink:href="#DejaVuSansMono-20" transform="translate(2733.166016 0.484375)"/>
      <use xlink:href="#DejaVuSansMono-20" transform="translate(2793.371094 0.484375)"/>
      <use xlink:href="#DejaVuSansMono-20" transform="translate(2853.576172 0.484375)"/>
      <use xlink:href="#DejaVuSansMono-20" transform="translate(2913.78125 0.484375)"/>
      <use xlink:href="#DejaVuSans-Oblique-3bc" transform="translate(2973.986328 0.484375)"/>
      <use xlink:href="#DejaVuSans-3d" transform="translate(3057.091797 0.484375)"/>
      <use xlink:href="#DejaVuSans-33" transform="translate(3160.363281 0.484375)"/>
      <use xlink:href="#DejaVuSans-2e" transform="translate(3223.986328 0.484375)"/>
      <use xlink:href="#DejaVuSans-33" transform="translate(3255.773438 0.484375)"/>
      <use xlink:href="#DejaVuSans-35" transform="translate(3319.396484 0.484375)"/>
      <use xlink:href="#DejaVuSansMono-20" transform="translate(3383.019531 0.484375)"/>
      <use xlink:href="#DejaVuSansMono-20" transform="translate(3443.224609 0.484375)"/>
      <use xlink:href="#DejaVuSansMono-20" transform="translate(3503.429688 0.484375)"/>
      <use xlink:href="#DejaVuSansMono-20" transform="translate(3563.634766 0.484375)"/>
      <use xlink:href="#DejaVuSansMono-20" transform="translate(3623.839844 0.484375)"/>
      <use xlink:href="#DejaVuSansMono-20" transform="translate(3684.044922 0.484375)"/>
      <use xlink:href="#DejaVuSansMono-20" transform="translate(3744.25 0.484375)"/>
      <use xlink:href="#DejaVuSansMono-20" transform="translate(3804.455078 0.484375)"/>
     </g>
    </g>
    <g id="line2d_72">
     <path d="M 220.8 158.60625 
L 230.8 158.60625 
L 240.8 158.60625 
" style="fill: none; stroke: #ffa0ac; stroke-width: 2; stroke-linecap: round"/>
    </g>
    <g id="text_20">
     <!-- bimod  $a=1.70$       $b=1.89$       $\lambda=0.63$        $\mu=1.22e-02$    -->
     <g style="fill: #262626" transform="translate(248.8 162.10625) scale(0.1 -0.1)">
      <defs>
       <path id="DejaVuSansMono-62" d="M 2869 1747 
Q 2869 2416 2656 2756 
Q 2444 3097 2028 3097 
Q 1609 3097 1393 2755 
Q 1178 2413 1178 1747 
Q 1178 1084 1393 740 
Q 1609 397 2028 397 
Q 2444 397 2656 737 
Q 2869 1078 2869 1747 
z
M 1178 3053 
Q 1316 3309 1558 3446 
Q 1800 3584 2119 3584 
Q 2750 3584 3112 3098 
Q 3475 2613 3475 1759 
Q 3475 894 3111 401 
Q 2747 -91 2113 -91 
Q 1800 -91 1561 45 
Q 1322 181 1178 441 
L 1178 0 
L 603 0 
L 603 4863 
L 1178 4863 
L 1178 3053 
z
" transform="scale(0.015625)"/>
       <path id="DejaVuSansMono-69" d="M 800 3500 
L 2272 3500 
L 2272 447 
L 3413 447 
L 3413 0 
L 556 0 
L 556 447 
L 1697 447 
L 1697 3053 
L 800 3053 
L 800 3500 
z
M 1697 4863 
L 2272 4863 
L 2272 4134 
L 1697 4134 
L 1697 4863 
z
" transform="scale(0.015625)"/>
       <path id="DejaVuSansMono-64" d="M 2681 3053 
L 2681 4863 
L 3256 4863 
L 3256 0 
L 2681 0 
L 2681 441 
Q 2538 181 2298 45 
Q 2059 -91 1747 -91 
Q 1113 -91 748 401 
Q 384 894 384 1759 
Q 384 2613 750 3098 
Q 1116 3584 1747 3584 
Q 2063 3584 2303 3448 
Q 2544 3313 2681 3053 
z
M 991 1747 
Q 991 1078 1203 737 
Q 1416 397 1831 397 
Q 2247 397 2464 740 
Q 2681 1084 2681 1747 
Q 2681 2413 2464 2755 
Q 2247 3097 1831 3097 
Q 1416 3097 1203 2756 
Q 991 2416 991 1747 
z
" transform="scale(0.015625)"/>
      </defs>
      <use xlink:href="#DejaVuSansMono-62" transform="translate(0 0.015625)"/>
      <use xlink:href="#DejaVuSansMono-69" transform="translate(60.205078 0.015625)"/>
      <use xlink:href="#DejaVuSansMono-6d" transform="translate(120.410156 0.015625)"/>
      <use xlink:href="#DejaVuSansMono-6f" transform="translate(180.615234 0.015625)"/>
      <use xlink:href="#DejaVuSansMono-64" transform="translate(240.820312 0.015625)"/>
      <use xlink:href="#DejaVuSansMono-20" transform="translate(301.025391 0.015625)"/>
      <use xlink:href="#DejaVuSansMono-20" transform="translate(361.230469 0.015625)"/>
      <use xlink:href="#DejaVuSans-Oblique-61" transform="translate(421.435547 0.015625)"/>
      <use xlink:href="#DejaVuSans-3d" transform="translate(502.197266 0.015625)"/>
      <use xlink:href="#DejaVuSans-31" transform="translate(605.46875 0.015625)"/>
      <use xlink:href="#DejaVuSans-2e" transform="translate(669.091797 0.015625)"/>
      <use xlink:href="#DejaVuSans-37" transform="translate(693.128906 0.015625)"/>
      <use xlink:href="#DejaVuSans-30" transform="translate(756.751953 0.015625)"/>
      <use xlink:href="#DejaVuSansMono-20" transform="translate(820.375 0.015625)"/>
      <use xlink:href="#DejaVuSansMono-20" transform="translate(880.580078 0.015625)"/>
      <use xlink:href="#DejaVuSansMono-20" transform="translate(940.785156 0.015625)"/>
      <use xlink:href="#DejaVuSansMono-20" transform="translate(1000.990234 0.015625)"/>
      <use xlink:href="#DejaVuSansMono-20" transform="translate(1061.195312 0.015625)"/>
      <use xlink:href="#DejaVuSansMono-20" transform="translate(1121.400391 0.015625)"/>
      <use xlink:href="#DejaVuSansMono-20" transform="translate(1181.605469 0.015625)"/>
      <use xlink:href="#DejaVuSans-Oblique-62" transform="translate(1241.810547 0.015625)"/>
      <use xlink:href="#DejaVuSans-3d" transform="translate(1324.769531 0.015625)"/>
      <use xlink:href="#DejaVuSans-31" transform="translate(1428.041016 0.015625)"/>
      <use xlink:href="#DejaVuSans-2e" transform="translate(1491.664062 0.015625)"/>
      <use xlink:href="#DejaVuSans-38" transform="translate(1520.826172 0.015625)"/>
      <use xlink:href="#DejaVuSans-39" transform="translate(1584.449219 0.015625)"/>
      <use xlink:href="#DejaVuSansMono-20" transform="translate(1648.072266 0.015625)"/>
      <use xlink:href="#DejaVuSansMono-20" transform="translate(1708.277344 0.015625)"/>
      <use xlink:href="#DejaVuSansMono-20" transform="translate(1768.482422 0.015625)"/>
      <use xlink:href="#DejaVuSansMono-20" transform="translate(1828.6875 0.015625)"/>
      <use xlink:href="#DejaVuSansMono-20" transform="translate(1888.892578 0.015625)"/>
      <use xlink:href="#DejaVuSansMono-20" transform="translate(1949.097656 0.015625)"/>
      <use xlink:href="#DejaVuSansMono-20" transform="translate(2009.302734 0.015625)"/>
      <use xlink:href="#DejaVuSans-Oblique-3bb" transform="translate(2069.507812 0.015625)"/>
      <use xlink:href="#DejaVuSans-3d" transform="translate(2148.169922 0.015625)"/>
      <use xlink:href="#DejaVuSans-30" transform="translate(2251.441406 0.015625)"/>
      <use xlink:href="#DejaVuSans-2e" transform="translate(2315.064453 0.015625)"/>
      <use xlink:href="#DejaVuSans-36" transform="translate(2346.851562 0.015625)"/>
      <use xlink:href="#DejaVuSans-33" transform="translate(2410.474609 0.015625)"/>
      <use xlink:href="#DejaVuSansMono-20" transform="translate(2474.097656 0.015625)"/>
      <use xlink:href="#DejaVuSansMono-20" transform="translate(2534.302734 0.015625)"/>
      <use xlink:href="#DejaVuSansMono-20" transform="translate(2594.507812 0.015625)"/>
      <use xlink:href="#DejaVuSansMono-20" transform="translate(2654.712891 0.015625)"/>
      <use xlink:href="#DejaVuSansMono-20" transform="translate(2714.917969 0.015625)"/>
      <use xlink:href="#DejaVuSansMono-20" transform="translate(2775.123047 0.015625)"/>
      <use xlink:href="#DejaVuSansMono-20" transform="translate(2835.328125 0.015625)"/>
      <use xlink:href="#DejaVuSansMono-20" transform="translate(2895.533203 0.015625)"/>
      <use xlink:href="#DejaVuSans-Oblique-3bc" transform="translate(2955.738281 0.015625)"/>
      <use xlink:href="#DejaVuSans-3d" transform="translate(3038.84375 0.015625)"/>
      <use xlink:href="#DejaVuSans-31" transform="translate(3142.115234 0.015625)"/>
      <use xlink:href="#DejaVuSans-2e" transform="translate(3205.738281 0.015625)"/>
      <use xlink:href="#DejaVuSans-32" transform="translate(3232.025391 0.015625)"/>
      <use xlink:href="#DejaVuSans-32" transform="translate(3295.648438 0.015625)"/>
      <use xlink:href="#DejaVuSans-Oblique-65" transform="translate(3359.271484 0.015625)"/>
      <use xlink:href="#DejaVuSans-2212" transform="translate(3440.277344 0.015625)"/>
      <use xlink:href="#DejaVuSans-30" transform="translate(3543.548828 0.015625)"/>
      <use xlink:href="#DejaVuSans-32" transform="translate(3607.171875 0.015625)"/>
      <use xlink:href="#DejaVuSansMono-20" transform="translate(3670.794922 0.015625)"/>
      <use xlink:href="#DejaVuSansMono-20" transform="translate(3731 0.015625)"/>
      <use xlink:href="#DejaVuSansMono-20" transform="translate(3791.205078 0.015625)"/>
     </g>
    </g>
   </g>
  </g>
 </g>
 <defs>
  <clipPath id="pd856aeedb4">
   <rect x="90" y="86.4" width="558" height="554.4"/>
  </clipPath>
 </defs>
</svg>
